{
  "source": "C:\\Users\\Peter\\Desktop\\stuff\\MIUN\\quantitative_research\\video_compression\\videos\\BVI-HD\\BVI-HD_CDVL_videos\\ORIG\\DiverFishAndRock_1920x1080_30fps.mp4",
  "output": "C:\\Users\\Peter\\Desktop\\stuff\\MIUN\\quantitative_research\\video_compression\\compressed_videos\\BVI-HD\\hevc\\4\\DiverFishAndRock_1920x1080_30fps_hevc.mp4",
  "codec": "hevc",
  "ok": "Input #0, mov,mp4,m4a,3gp,3g2,mj2, from 'C:\\Users\\Peter\\Desktop\\stuff\\MIUN\\quantitative_research\\video_compression\\videos\\BVI-HD\\BVI-HD_CDVL_videos\\ORIG\\DiverFishAndRock_1920x1080_30fps.mp4':\n  Metadata:\n    major_brand     : isom\n    minor_version   : 512\n    compatible_brands: isomiso2avc1mp41\n    encoder         : Lavf54.28.101\n  Duration: 00:00:05.00, start: 0.000000, bitrate: 228854 kb/s\n  Stream #0:0[0x1](und): Video: h264 (High 4:4:4 Predictive) (avc1 / 0x31637661), yuv420p(progressive), 1920x1080, 228851 kb/s, 30 fps, 30 tbr, 30 tbn (default)\n    Metadata:\n      handler_name    : VideoHandler\n      vendor_id       : [0][0][0][0]\n[out#0/mp4 @ 0000027b2f21a980] Codec AVOption b:a (set bitrate (in bits/s)) has not been used for any stream. The most likely reason is either wrong type (e.g. a video option with no video streams) or that it is a private option of some decoder which was not actually used for any stream.\nStream mapping:\n  Stream #0:0 -> #0:0 (h264 (native) -> hevc (libx265))\nPress [q] to stop, [?] for help\n[libx265 @ 0000027b2fb1b7c0] Unknown option: \"aq-mode.\nx265 [info]: HEVC encoder version 4.1+190-8f11c33ac\nx265 [info]: build info [Windows][GCC 15.1.0][64 bit] 10bit\nx265 [info]: using cpu capabilities: MMX2 SSE2Fast LZCNT SSSE3 SSE4.2 AVX FMA3 BMI2 AVX2\nx265 [info]: Main 10 profile, Level-4 (Main tier)\nx265 [info]: Thread pool created using 12 threads\nx265 [info]: Slices                              : 1\nx265 [info]: frame threads / pool features       : 3 / wpp(17 rows)\nx265 [info]: Coding QT: max CU size, min CU size : 64 / 8\nx265 [info]: Residual QT: max TU size, max depth : 32 / 1 inter / 1 intra\nx265 [info]: ME / range / subpel / merge         : star / 57 / 3 / 3\nx265 [info]: Keyframe min / max / scenecut / bias  : 25 / 250 / 40 / 5.00 \nx265 [info]: Lookahead / bframes / badapt        : 25 / 4 / 2\nx265 [info]: b-pyramid / weightp / weightb       : 1 / 1 / 0\nx265 [info]: References / ref-limit  cu / depth  : 4 / on / on\nx265 [info]: AQ: mode / str / qg-size / cu-tree  : 2 / 1.0 / 32 / 1\nx265 [info]: Rate Control / qCompress            : ABR-4000 kbps / 0.60\nx265 [info]: VBV/HRD buffer / max-rate / init    : 4000 / 4000 / 0.750\nx265 [info]: tools: rect limit-modes rd=4 psy-rd=2.00 rdoq=2 psy-rdoq=1.00\nx265 [info]: tools: rskip mode=1 signhide tmvp strong-intra-smoothing lslices=4\nx265 [info]: tools: deblock sao dhdr10-info\nOutput #0, mp4, to 'C:\\Users\\Peter\\Desktop\\stuff\\MIUN\\quantitative_research\\video_compression\\compressed_videos\\BVI-HD\\hevc\\4\\DiverFishAndRock_1920x1080_30fps_hevc.mp4':\n  Metadata:\n    major_brand     : isom\n    minor_version   : 512\n    compatible_brands: isomiso2avc1mp41\n    encoder         : Lavf62.3.100\n  Stream #0:0(und): Video: hevc (hev1 / 0x31766568), yuv420p10le(tv, progressive), 1920x1080, q=2-31, 4000 kb/s, 30 fps, 15360 tbn (default)\n    Metadata:\n      encoder         : Lavc62.11.100 libx265\n      handler_name    : VideoHandler\n      vendor_id       : [0][0][0][0]\n    Side data:\n      cpb: bitrate max/min/avg: 4000000/0/4000000 buffer size: 4000000 vbv_delay: N/A\nframe=    0 fps=0.0 q=0.0 size=       0KiB time=N/A bitrate=N/A speed=N/A elapsed=0:00:00.52    \nframe=    0 fps=0.0 q=0.0 size=       0KiB time=N/A bitrate=N/A speed=N/A elapsed=0:00:01.05    \nframe=    0 fps=0.0 q=0.0 size=       0KiB time=N/A bitrate=N/A speed=N/A elapsed=0:00:01.57    \nframe=    0 fps=0.0 q=0.0 size=       0KiB time=N/A bitrate=N/A speed=N/A elapsed=0:00:02.07    \nframe=    0 fps=0.0 q=0.0 size=       0KiB time=N/A bitrate=N/A speed=N/A elapsed=0:00:02.59    \nframe=    0 fps=0.0 q=0.0 size=       0KiB time=N/A bitrate=N/A speed=N/A elapsed=0:00:03.12    \nframe=    0 fps=0.0 q=0.0 size=       0KiB time=N/A bitrate=N/A speed=N/A elapsed=0:00:03.64    \nframe=    0 fps=0.0 q=0.0 size=       0KiB time=N/A bitrate=N/A speed=N/A elapsed=0:00:04.16    \nframe=    0 fps=0.0 q=0.0 size=       0KiB time=N/A bitrate=N/A speed=N/A elapsed=0:00:04.70    \nframe=    0 fps=0.0 q=0.0 size=       0KiB time=N/A bitrate=N/A speed=N/A elapsed=0:00:05.21    \nframe=    0 fps=0.0 q=0.0 size=       0KiB time=N/A bitrate=N/A speed=N/A elapsed=0:00:05.76    \nframe=    0 fps=0.0 q=0.0 size=       0KiB time=N/A bitrate=N/A speed=N/A elapsed=0:00:06.33    \nframe=    0 fps=0.0 q=0.0 size=       0KiB time=N/A bitrate=N/A speed=N/A elapsed=0:00:06.88    \nframe=    0 fps=0.0 q=0.0 size=       0KiB time=N/A bitrate=N/A speed=N/A elapsed=0:00:07.44    \nframe=    0 fps=0.0 q=0.0 size=       0KiB time=N/A bitrate=N/A speed=N/A elapsed=0:00:07.98    \nframe=    0 fps=0.0 q=0.0 size=       0KiB time=N/A bitrate=N/A speed=N/A elapsed=0:00:08.51    \nframe=    0 fps=0.0 q=0.0 size=       0KiB time=N/A bitrate=N/A speed=N/A elapsed=0:00:09.06    \nframe=    0 fps=0.0 q=0.0 size=       0KiB time=N/A bitrate=N/A speed=N/A elapsed=0:00:09.58    \nframe=    0 fps=0.0 q=0.0 size=       0KiB time=N/A bitrate=N/A speed=N/A elapsed=0:00:10.09    \nframe=    0 fps=0.0 q=0.0 size=       0KiB time=N/A bitrate=N/A speed=N/A elapsed=0:00:10.66    \nframe=    0 fps=0.0 q=0.0 size=       0KiB time=N/A bitrate=N/A speed=N/A elapsed=0:00:11.18    \nframe=    0 fps=0.0 q=0.0 size=       0KiB time=N/A bitrate=N/A speed=N/A elapsed=0:00:11.73    \nframe=    1 fps=0.1 q=29.2 size=       0KiB time=-00:00:00.03 bitrate=N/A speed=N/A elapsed=0:00:12.27    \nframe=    1 fps=0.1 q=29.2 size=       0KiB time=-00:00:00.03 bitrate=N/A speed=N/A elapsed=0:00:12.85    \nframe=    1 fps=0.1 q=29.2 size=       0KiB time=-00:00:00.03 bitrate=N/A speed=N/A elapsed=0:00:13.47    \nframe=    1 fps=0.1 q=29.2 size=       0KiB time=-00:00:00.03 bitrate=N/A speed=N/A elapsed=0:00:14.01    \nframe=    2 fps=0.1 q=32.2 size=       0KiB time=00:00:00.00 bitrate=N/A speed=   0x elapsed=0:00:14.57    \nframe=    2 fps=0.1 q=32.2 size=       0KiB time=00:00:00.00 bitrate=N/A speed=   0x elapsed=0:00:15.12    \nframe=    2 fps=0.1 q=32.2 size=       0KiB time=00:00:00.00 bitrate=N/A speed=   0x elapsed=0:00:15.64    \nframe=    2 fps=0.1 q=32.2 size=       0KiB time=00:00:00.00 bitrate=N/A speed=   0x elapsed=0:00:16.19    \nframe=    2 fps=0.1 q=32.2 size=       0KiB time=00:00:00.00 bitrate=N/A speed=   0x elapsed=0:00:16.77    \nframe=    2 fps=0.1 q=32.2 size=       0KiB time=00:00:00.00 bitrate=N/A speed=   0x elapsed=0:00:17.35    \nframe=    3 fps=0.2 q=35.7 size=       0KiB time=00:00:00.03 bitrate=  10.6kbits/s speed=0.00186x elapsed=0:00:17.89    \nframe=    3 fps=0.2 q=35.7 size=       0KiB time=00:00:00.03 bitrate=  10.6kbits/s speed=0.00181x elapsed=0:00:18.40    \nframe=    3 fps=0.2 q=35.7 size=       0KiB time=00:00:00.03 bitrate=  10.6kbits/s speed=0.00176x elapsed=0:00:18.95    \nframe=    3 fps=0.2 q=35.7 size=       0KiB time=00:00:00.03 bitrate=  10.6kbits/s speed=0.00171x elapsed=0:00:19.51    \nframe=    3 fps=0.1 q=35.7 size=       0KiB time=00:00:00.03 bitrate=  10.6kbits/s speed=0.00166x elapsed=0:00:20.08    \nframe=    3 fps=0.1 q=35.7 size=       0KiB time=00:00:00.03 bitrate=  10.6kbits/s speed=0.00161x elapsed=0:00:20.64    \nframe=    3 fps=0.1 q=35.7 size=       0KiB time=00:00:00.03 bitrate=  10.6kbits/s speed=0.00157x elapsed=0:00:21.22    \nframe=    4 fps=0.2 q=37.1 size=       0KiB time=00:00:00.03 bitrate=  10.6kbits/s speed=0.00153x elapsed=0:00:21.78    \nframe=    4 fps=0.2 q=37.1 size=       0KiB time=00:00:00.06 bitrate=   5.3kbits/s speed=0.00299x elapsed=0:00:22.32    \nframe=    4 fps=0.2 q=37.1 size=       0KiB time=00:00:00.06 bitrate=   5.3kbits/s speed=0.00292x elapsed=0:00:22.84    \nframe=    4 fps=0.2 q=37.1 size=       0KiB time=00:00:00.06 bitrate=   5.3kbits/s speed=0.00285x elapsed=0:00:23.41    \nframe=    4 fps=0.2 q=37.1 size=       0KiB time=00:00:00.06 bitrate=   5.3kbits/s speed=0.00278x elapsed=0:00:24.00    \nframe=    4 fps=0.2 q=37.1 size=       0KiB time=00:00:00.06 bitrate=   5.3kbits/s speed=0.00271x elapsed=0:00:24.58    \nframe=    5 fps=0.2 q=35.9 size=       0KiB time=00:00:00.10 bitrate=   3.5kbits/s speed=0.00398x elapsed=0:00:25.13    \nframe=    5 fps=0.2 q=35.9 size=       0KiB time=00:00:00.10 bitrate=   3.5kbits/s speed=0.0039x elapsed=0:00:25.66    \nframe=    5 fps=0.2 q=35.9 size=       0KiB time=00:00:00.10 bitrate=   3.5kbits/s speed=0.00382x elapsed=0:00:26.21    \nframe=    6 fps=0.2 q=29.8 size=       0KiB time=00:00:00.10 bitrate=   3.5kbits/s speed=0.00374x elapsed=0:00:26.75    \nframe=    6 fps=0.2 q=29.8 size=       0KiB time=00:00:00.13 bitrate=   2.6kbits/s speed=0.00488x elapsed=0:00:27.31    \nframe=    6 fps=0.2 q=29.8 size=       0KiB time=00:00:00.13 bitrate=   2.6kbits/s speed=0.00478x elapsed=0:00:27.86    \nframe=    7 fps=0.2 q=33.4 size=       0KiB time=00:00:00.16 bitrate=   2.1kbits/s speed=0.00587x elapsed=0:00:28.40    \nframe=    7 fps=0.2 q=33.4 size=       0KiB time=00:00:00.16 bitrate=   2.1kbits/s speed=0.00575x elapsed=0:00:28.96    \nframe=    7 fps=0.2 q=33.4 size=       0KiB time=00:00:00.16 bitrate=   2.1kbits/s speed=0.00565x elapsed=0:00:29.49    \nframe=    7 fps=0.2 q=33.4 size=       0KiB time=00:00:00.16 bitrate=   2.1kbits/s speed=0.00555x elapsed=0:00:30.04    \nframe=    7 fps=0.2 q=33.4 size=       0KiB time=00:00:00.16 bitrate=   2.1kbits/s speed=0.00545x elapsed=0:00:30.58    \nframe=    7 fps=0.2 q=33.4 size=       0KiB time=00:00:00.16 bitrate=   2.1kbits/s speed=0.00535x elapsed=0:00:31.13    \nframe=    7 fps=0.2 q=33.4 size=       0KiB time=00:00:00.16 bitrate=   2.1kbits/s speed=0.00526x elapsed=0:00:31.69    \nframe=    7 fps=0.2 q=33.4 size=       0KiB time=00:00:00.16 bitrate=   2.1kbits/s speed=0.00515x elapsed=0:00:32.33    \nframe=    7 fps=0.2 q=33.4 size=       0KiB time=00:00:00.16 bitrate=   2.1kbits/s speed=0.00506x elapsed=0:00:32.93    \nframe=    7 fps=0.2 q=33.4 size=       0KiB time=00:00:00.16 bitrate=   2.1kbits/s speed=0.00497x elapsed=0:00:33.52    \nframe=    7 fps=0.2 q=33.4 size=       0KiB time=00:00:00.16 bitrate=   2.1kbits/s speed=0.00489x elapsed=0:00:34.06    \nframe=    7 fps=0.2 q=33.4 size=       0KiB time=00:00:00.16 bitrate=   2.1kbits/s speed=0.00481x elapsed=0:00:34.63    \nframe=    7 fps=0.2 q=33.4 size=       0KiB time=00:00:00.16 bitrate=   2.1kbits/s speed=0.00473x elapsed=0:00:35.20    \nframe=    8 fps=0.2 q=33.8 size=       0KiB time=00:00:00.20 bitrate=   1.8kbits/s speed=0.00559x elapsed=0:00:35.75    \nframe=    8 fps=0.2 q=33.8 size=       0KiB time=00:00:00.20 bitrate=   1.8kbits/s speed=0.0055x elapsed=0:00:36.34    \nframe=    8 fps=0.2 q=33.8 size=       0KiB time=00:00:00.20 bitrate=   1.8kbits/s speed=0.00542x elapsed=0:00:36.93    \nframe=    8 fps=0.2 q=33.8 size=       0KiB time=00:00:00.20 bitrate=   1.8kbits/s speed=0.00534x elapsed=0:00:37.48    \nframe=    8 fps=0.2 q=33.8 size=       0KiB time=00:00:00.20 bitrate=   1.8kbits/s speed=0.00526x elapsed=0:00:38.00    \nframe=    8 fps=0.2 q=33.8 size=       0KiB time=00:00:00.20 bitrate=   1.8kbits/s speed=0.00519x elapsed=0:00:38.51    \nframe=    9 fps=0.2 q=33.4 size=       0KiB time=00:00:00.23 bitrate=   1.5kbits/s speed=0.00597x elapsed=0:00:39.06    \nframe=    9 fps=0.2 q=33.4 size=       0KiB time=00:00:00.23 bitrate=   1.5kbits/s speed=0.00589x elapsed=0:00:39.59    \nframe=   10 fps=0.2 q=28.5 size=       0KiB time=00:00:00.26 bitrate=   1.3kbits/s speed=0.00665x elapsed=0:00:40.11    \nframe=   10 fps=0.2 q=28.5 size=       0KiB time=00:00:00.26 bitrate=   1.3kbits/s speed=0.00656x elapsed=0:00:40.65    \nframe=   10 fps=0.2 q=28.5 size=       0KiB time=00:00:00.26 bitrate=   1.3kbits/s speed=0.00647x elapsed=0:00:41.21    \nframe=   10 fps=0.2 q=28.5 size=       0KiB time=00:00:00.26 bitrate=   1.3kbits/s speed=0.00639x elapsed=0:00:41.74    \nframe=   10 fps=0.2 q=28.5 size=       0KiB time=00:00:00.26 bitrate=   1.3kbits/s speed=0.00631x elapsed=0:00:42.27    \nframe=   11 fps=0.3 q=32.6 size=       0KiB time=00:00:00.30 bitrate=   1.2kbits/s speed=0.00701x elapsed=0:00:42.79    \nframe=   11 fps=0.3 q=32.6 size=       0KiB time=00:00:00.30 bitrate=   1.2kbits/s speed=0.00693x elapsed=0:00:43.31    \nframe=   11 fps=0.3 q=32.6 size=       0KiB time=00:00:00.30 bitrate=   1.2kbits/s speed=0.00684x elapsed=0:00:43.83    \nframe=   12 fps=0.3 q=33.6 size=       0KiB time=00:00:00.33 bitrate=   1.1kbits/s speed=0.00752x elapsed=0:00:44.34    \nframe=   12 fps=0.3 q=33.6 size=       0KiB time=00:00:00.33 bitrate=   1.1kbits/s speed=0.00743x elapsed=0:00:44.86    \nframe=   12 fps=0.3 q=33.6 size=       0KiB time=00:00:00.33 bitrate=   1.1kbits/s speed=0.00734x elapsed=0:00:45.38    \nframe=   12 fps=0.3 q=33.6 size=       0KiB time=00:00:00.33 bitrate=   1.1kbits/s speed=0.00726x elapsed=0:00:45.90    \nframe=   12 fps=0.3 q=33.6 size=       0KiB time=00:00:00.33 bitrate=   1.1kbits/s speed=0.00718x elapsed=0:00:46.43    \nframe=   12 fps=0.3 q=33.6 size=       0KiB time=00:00:00.33 bitrate=   1.1kbits/s speed=0.0071x elapsed=0:00:46.94    \nframe=   12 fps=0.3 q=33.6 size=       0KiB time=00:00:00.33 bitrate=   1.1kbits/s speed=0.00702x elapsed=0:00:47.47    \nframe=   13 fps=0.3 q=33.5 size=       0KiB time=00:00:00.36 bitrate=   1.0kbits/s speed=0.00764x elapsed=0:00:48.01    \nframe=   13 fps=0.3 q=33.5 size=       0KiB time=00:00:00.36 bitrate=   1.0kbits/s speed=0.00755x elapsed=0:00:48.53    \nframe=   13 fps=0.3 q=33.5 size=       0KiB time=00:00:00.36 bitrate=   1.0kbits/s speed=0.00747x elapsed=0:00:49.05    \nframe=   13 fps=0.3 q=33.5 size=       0KiB time=00:00:00.36 bitrate=   1.0kbits/s speed=0.00739x elapsed=0:00:49.60    \nframe=   14 fps=0.3 q=32.9 size=       0KiB time=00:00:00.40 bitrate=   0.9kbits/s speed=0.00798x elapsed=0:00:50.15    \nframe=   15 fps=0.3 q=27.7 size=       0KiB time=00:00:00.43 bitrate=   0.8kbits/s speed=0.00855x elapsed=0:00:50.69    \nframe=   15 fps=0.3 q=27.7 size=       0KiB time=00:00:00.43 bitrate=   0.8kbits/s speed=0.00845x elapsed=0:00:51.27    \nframe=   15 fps=0.3 q=27.7 size=       0KiB time=00:00:00.43 bitrate=   0.8kbits/s speed=0.00837x elapsed=0:00:51.80    \nframe=   16 fps=0.3 q=31.4 size=       0KiB time=00:00:00.46 bitrate=   0.8kbits/s speed=0.00892x elapsed=0:00:52.32    \nframe=   16 fps=0.3 q=31.4 size=       0KiB time=00:00:00.46 bitrate=   0.8kbits/s speed=0.00883x elapsed=0:00:52.82    \nframe=   16 fps=0.3 q=31.4 size=       0KiB time=00:00:00.46 bitrate=   0.8kbits/s speed=0.00875x elapsed=0:00:53.35    \nframe=   16 fps=0.3 q=31.4 size=       0KiB time=00:00:00.46 bitrate=   0.8kbits/s speed=0.00866x elapsed=0:00:53.89    \nframe=   16 fps=0.3 q=31.4 size=       0KiB time=00:00:00.46 bitrate=   0.8kbits/s speed=0.00857x elapsed=0:00:54.42    \nframe=   16 fps=0.3 q=31.4 size=       0KiB time=00:00:00.46 bitrate=   0.8kbits/s speed=0.00849x elapsed=0:00:54.95    \nframe=   17 fps=0.3 q=33.1 size=       0KiB time=00:00:00.50 bitrate=   0.7kbits/s speed=0.00901x elapsed=0:00:55.48    \nframe=   17 fps=0.3 q=33.1 size=       0KiB time=00:00:00.50 bitrate=   0.7kbits/s speed=0.00893x elapsed=0:00:56.00    \nframe=   18 fps=0.3 q=32.9 size=     256KiB time=00:00:00.53 bitrate=3932.8kbits/s speed=0.00943x elapsed=0:00:56.54    \nframe=   18 fps=0.3 q=32.9 size=     256KiB time=00:00:00.53 bitrate=3932.8kbits/s speed=0.00934x elapsed=0:00:57.08    \nframe=   18 fps=0.3 q=32.9 size=     256KiB time=00:00:00.53 bitrate=3932.8kbits/s speed=0.00925x elapsed=0:00:57.62    \nframe=   18 fps=0.3 q=32.9 size=     256KiB time=00:00:00.53 bitrate=3932.8kbits/s speed=0.00916x elapsed=0:00:58.24    \nframe=   18 fps=0.3 q=32.9 size=     256KiB time=00:00:00.53 bitrate=3932.8kbits/s speed=0.00907x elapsed=0:00:58.81    \nframe=   18 fps=0.3 q=32.9 size=     256KiB time=00:00:00.53 bitrate=3932.8kbits/s speed=0.00898x elapsed=0:00:59.39    \nframe=   18 fps=0.3 q=32.9 size=     256KiB time=00:00:00.53 bitrate=3932.8kbits/s speed=0.0089x elapsed=0:00:59.92    \nframe=   19 fps=0.3 q=27.6 size=     256KiB time=00:00:00.56 bitrate=3701.5kbits/s speed=0.00937x elapsed=0:01:00.46    \nframe=   19 fps=0.3 q=27.6 size=     256KiB time=00:00:00.56 bitrate=3701.5kbits/s speed=0.00929x elapsed=0:01:00.96    \nframe=   19 fps=0.3 q=27.6 size=     256KiB time=00:00:00.56 bitrate=3701.5kbits/s speed=0.00921x elapsed=0:01:01.49    \nframe=   19 fps=0.3 q=27.6 size=     256KiB time=00:00:00.56 bitrate=3701.5kbits/s speed=0.00914x elapsed=0:01:02.02    \nframe=   20 fps=0.3 q=30.7 size=     256KiB time=00:00:00.60 bitrate=3495.8kbits/s speed=0.00959x elapsed=0:01:02.55    \nframe=   20 fps=0.3 q=30.7 size=     256KiB time=00:00:00.60 bitrate=3495.8kbits/s speed=0.00951x elapsed=0:01:03.08    \nframe=   20 fps=0.3 q=30.7 size=     256KiB time=00:00:00.60 bitrate=3495.8kbits/s speed=0.00942x elapsed=0:01:03.67    \nframe=   20 fps=0.3 q=30.7 size=     256KiB time=00:00:00.60 bitrate=3495.8kbits/s speed=0.00934x elapsed=0:01:04.27    \nframe=   21 fps=0.3 q=32.8 size=     256KiB time=00:00:00.63 bitrate=3311.9kbits/s speed=0.00977x elapsed=0:01:04.80    \nframe=   21 fps=0.3 q=32.8 size=     256KiB time=00:00:00.63 bitrate=3311.9kbits/s speed=0.00969x elapsed=0:01:05.34    \nframe=   21 fps=0.3 q=32.8 size=     256KiB time=00:00:00.63 bitrate=3311.9kbits/s speed=0.00961x elapsed=0:01:05.92    \nframe=   21 fps=0.3 q=32.8 size=     256KiB time=00:00:00.63 bitrate=3311.9kbits/s speed=0.00953x elapsed=0:01:06.49    \nframe=   21 fps=0.3 q=32.8 size=     256KiB time=00:00:00.63 bitrate=3311.9kbits/s speed=0.00945x elapsed=0:01:07.00    \nframe=   21 fps=0.3 q=32.8 size=     256KiB time=00:00:00.63 bitrate=3311.9kbits/s speed=0.00936x elapsed=0:01:07.63    \nframe=   21 fps=0.3 q=32.8 size=     256KiB time=00:00:00.63 bitrate=3311.9kbits/s speed=0.00929x elapsed=0:01:08.17    \nframe=   21 fps=0.3 q=32.8 size=     256KiB time=00:00:00.63 bitrate=3311.9kbits/s speed=0.00921x elapsed=0:01:08.74    \nframe=   21 fps=0.3 q=32.8 size=     256KiB time=00:00:00.63 bitrate=3311.9kbits/s speed=0.00914x elapsed=0:01:09.28    \nframe=   21 fps=0.3 q=32.8 size=     256KiB time=00:00:00.63 bitrate=3311.9kbits/s speed=0.00907x elapsed=0:01:09.82    \nframe=   22 fps=0.3 q=32.4 size=     256KiB time=00:00:00.66 bitrate=3146.3kbits/s speed=0.00948x elapsed=0:01:10.34    \nframe=   22 fps=0.3 q=32.4 size=     256KiB time=00:00:00.66 bitrate=3146.3kbits/s speed=0.0094x elapsed=0:01:10.88    \nframe=   22 fps=0.3 q=32.4 size=     256KiB time=00:00:00.66 bitrate=3146.3kbits/s speed=0.00934x elapsed=0:01:11.40    \nframe=   22 fps=0.3 q=32.4 size=     256KiB time=00:00:00.66 bitrate=3146.3kbits/s speed=0.00927x elapsed=0:01:11.94    \nframe=   22 fps=0.3 q=32.4 size=     256KiB time=00:00:00.66 bitrate=3146.3kbits/s speed=0.0092x elapsed=0:01:12.46    \nframe=   23 fps=0.3 q=27.1 size=     256KiB time=00:00:00.70 bitrate=2996.4kbits/s speed=0.00959x elapsed=0:01:12.98    \nframe=   23 fps=0.3 q=27.1 size=     256KiB time=00:00:00.70 bitrate=2996.4kbits/s speed=0.00952x elapsed=0:01:13.50    \nframe=   23 fps=0.3 q=27.1 size=     256KiB time=00:00:00.70 bitrate=2996.4kbits/s speed=0.00946x elapsed=0:01:14.03    \nframe=   24 fps=0.3 q=29.9 size=     256KiB time=00:00:00.73 bitrate=2860.2kbits/s speed=0.00983x elapsed=0:01:14.56    \nframe=   25 fps=0.3 q=32.3 size=     256KiB time=00:00:00.76 bitrate=2735.9kbits/s speed=0.0102x elapsed=0:01:15.08    \nframe=   25 fps=0.3 q=32.3 size=     256KiB time=00:00:00.76 bitrate=2735.9kbits/s speed=0.0101x elapsed=0:01:15.59    \nframe=   25 fps=0.3 q=32.3 size=     256KiB time=00:00:00.76 bitrate=2735.9kbits/s speed=0.0101x elapsed=0:01:16.10    \nframe=   25 fps=0.3 q=32.3 size=     256KiB time=00:00:00.76 bitrate=2735.9kbits/s speed=0.01x elapsed=0:01:16.63    \nframe=   25 fps=0.3 q=32.3 size=     256KiB time=00:00:00.76 bitrate=2735.9kbits/s speed=0.00994x elapsed=0:01:17.14    \nframe=   26 fps=0.3 q=31.8 size=     256KiB time=00:00:00.80 bitrate=2621.9kbits/s speed=0.0103x elapsed=0:01:17.69    \nframe=   26 fps=0.3 q=31.8 size=     256KiB time=00:00:00.80 bitrate=2621.9kbits/s speed=0.0102x elapsed=0:01:18.21    \nframe=   26 fps=0.3 q=31.8 size=     256KiB time=00:00:00.80 bitrate=2621.9kbits/s speed=0.0102x elapsed=0:01:18.73    \nframe=   26 fps=0.3 q=31.8 size=     256KiB time=00:00:00.80 bitrate=2621.9kbits/s speed=0.0101x elapsed=0:01:19.25    \nframe=   27 fps=0.3 q=31.9 size=     256KiB time=00:00:00.83 bitrate=2517.0kbits/s speed=0.0104x elapsed=0:01:19.79    \nframe=   27 fps=0.3 q=31.9 size=     256KiB time=00:00:00.83 bitrate=2517.0kbits/s speed=0.0104x elapsed=0:01:20.29    \nframe=   28 fps=0.3 q=27.1 size=     256KiB time=00:00:00.86 bitrate=2420.2kbits/s speed=0.0107x elapsed=0:01:20.81    \nframe=   29 fps=0.4 q=28.6 size=     256KiB time=00:00:00.90 bitrate=2330.6kbits/s speed=0.0111x elapsed=0:01:21.34    \nframe=   29 fps=0.4 q=28.6 size=     256KiB time=00:00:00.90 bitrate=2330.6kbits/s speed=0.011x elapsed=0:01:21.87    \nframe=   30 fps=0.4 q=32.9 size=     256KiB time=00:00:00.93 bitrate=2247.3kbits/s speed=0.0113x elapsed=0:01:22.47    \nframe=   30 fps=0.4 q=32.9 size=     256KiB time=00:00:00.93 bitrate=2247.3kbits/s speed=0.0112x elapsed=0:01:23.00    \nframe=   30 fps=0.4 q=32.9 size=     256KiB time=00:00:00.93 bitrate=2247.3kbits/s speed=0.0112x elapsed=0:01:23.54    \nframe=   30 fps=0.4 q=32.9 size=     256KiB time=00:00:00.93 bitrate=2247.3kbits/s speed=0.0111x elapsed=0:01:24.08    \nframe=   30 fps=0.4 q=32.9 size=     256KiB time=00:00:00.93 bitrate=2247.3kbits/s speed=0.011x elapsed=0:01:24.63    \nframe=   30 fps=0.4 q=32.9 size=     256KiB time=00:00:00.93 bitrate=2247.3kbits/s speed=0.011x elapsed=0:01:25.16    \nframe=   30 fps=0.4 q=32.9 size=     256KiB time=00:00:00.93 bitrate=2247.3kbits/s speed=0.0109x elapsed=0:01:25.67    \nframe=   31 fps=0.4 q=32.8 size=     256KiB time=00:00:00.96 bitrate=2169.8kbits/s speed=0.0112x elapsed=0:01:26.19    \nframe=   31 fps=0.4 q=32.8 size=     256KiB time=00:00:00.96 bitrate=2169.8kbits/s speed=0.0111x elapsed=0:01:26.72    \nframe=   31 fps=0.4 q=32.8 size=     256KiB time=00:00:00.96 bitrate=2169.8kbits/s speed=0.0111x elapsed=0:01:27.23    \nframe=   31 fps=0.4 q=32.8 size=     256KiB time=00:00:00.96 bitrate=2169.8kbits/s speed=0.011x elapsed=0:01:27.76    \nframe=   31 fps=0.4 q=32.8 size=     256KiB time=00:00:00.96 bitrate=2169.8kbits/s speed=0.0109x elapsed=0:01:28.28    \nframe=   32 fps=0.4 q=32.9 size=     256KiB time=00:00:01.00 bitrate=2097.5kbits/s speed=0.0113x elapsed=0:01:28.79    \nframe=   32 fps=0.4 q=32.9 size=     256KiB time=00:00:01.00 bitrate=2097.5kbits/s speed=0.0112x elapsed=0:01:29.31    \nframe=   33 fps=0.4 q=27.5 size=     256KiB time=00:00:01.03 bitrate=2029.8kbits/s speed=0.0115x elapsed=0:01:29.82    \nframe=   33 fps=0.4 q=27.5 size=     256KiB time=00:00:01.03 bitrate=2029.8kbits/s speed=0.0114x elapsed=0:01:30.34    \nframe=   33 fps=0.4 q=27.5 size=     256KiB time=00:00:01.03 bitrate=2029.8kbits/s speed=0.0114x elapsed=0:01:30.85    \nframe=   34 fps=0.4 q=30.4 size=     512KiB time=00:00:01.06 bitrate=3932.5kbits/s speed=0.0117x elapsed=0:01:31.38    \nframe=   34 fps=0.4 q=30.4 size=     512KiB time=00:00:01.06 bitrate=3932.5kbits/s speed=0.0116x elapsed=0:01:31.91    \nframe=   34 fps=0.4 q=30.4 size=     512KiB time=00:00:01.06 bitrate=3932.5kbits/s speed=0.0115x elapsed=0:01:32.42    \nframe=   34 fps=0.4 q=30.4 size=     512KiB time=00:00:01.06 bitrate=3932.5kbits/s speed=0.0115x elapsed=0:01:32.94    \nframe=   34 fps=0.4 q=30.4 size=     512KiB time=00:00:01.06 bitrate=3932.5kbits/s speed=0.0114x elapsed=0:01:33.46    \nframe=   34 fps=0.4 q=30.4 size=     512KiB time=00:00:01.06 bitrate=3932.5kbits/s speed=0.0113x elapsed=0:01:33.98    \nframe=   35 fps=0.4 q=32.8 size=     512KiB time=00:00:01.10 bitrate=3813.3kbits/s speed=0.0116x elapsed=0:01:34.52    \nframe=   35 fps=0.4 q=32.8 size=     512KiB time=00:00:01.10 bitrate=3813.3kbits/s speed=0.0116x elapsed=0:01:35.07    \nframe=   35 fps=0.4 q=32.8 size=     512KiB time=00:00:01.10 bitrate=3813.3kbits/s speed=0.0115x elapsed=0:01:35.60    \nframe=   36 fps=0.4 q=32.8 size=     512KiB time=00:00:01.13 bitrate=3701.2kbits/s speed=0.0118x elapsed=0:01:36.12    \nframe=   36 fps=0.4 q=32.8 size=     512KiB time=00:00:01.13 bitrate=3701.2kbits/s speed=0.0117x elapsed=0:01:36.62    \nframe=   37 fps=0.4 q=27.2 size=     512KiB time=00:00:01.16 bitrate=3595.4kbits/s speed=0.012x elapsed=0:01:37.13    \nframe=   37 fps=0.4 q=27.2 size=     512KiB time=00:00:01.16 bitrate=3595.4kbits/s speed=0.0119x elapsed=0:01:37.65    \nframe=   38 fps=0.4 q=30.5 size=     512KiB time=00:00:01.20 bitrate=3495.5kbits/s speed=0.0122x elapsed=0:01:38.17    \nframe=   38 fps=0.4 q=30.5 size=     512KiB time=00:00:01.20 bitrate=3495.5kbits/s speed=0.0122x elapsed=0:01:38.70    \nframe=   38 fps=0.4 q=30.5 size=     512KiB time=00:00:01.20 bitrate=3495.5kbits/s speed=0.0121x elapsed=0:01:39.23    \nframe=   38 fps=0.4 q=30.5 size=     512KiB time=00:00:01.20 bitrate=3495.5kbits/s speed=0.012x elapsed=0:01:39.75    \nframe=   38 fps=0.4 q=30.5 size=     512KiB time=00:00:01.20 bitrate=3495.5kbits/s speed=0.012x elapsed=0:01:40.29    \nframe=   38 fps=0.4 q=30.5 size=     512KiB time=00:00:01.20 bitrate=3495.5kbits/s speed=0.0119x elapsed=0:01:40.88    \nframe=   38 fps=0.4 q=30.5 size=     512KiB time=00:00:01.20 bitrate=3495.5kbits/s speed=0.0118x elapsed=0:01:41.45    \nframe=   38 fps=0.4 q=30.5 size=     512KiB time=00:00:01.20 bitrate=3495.5kbits/s speed=0.0118x elapsed=0:01:41.97    \nframe=   38 fps=0.4 q=30.5 size=     512KiB time=00:00:01.20 bitrate=3495.5kbits/s speed=0.0117x elapsed=0:01:42.57    \nframe=   38 fps=0.4 q=30.5 size=     512KiB time=00:00:01.20 bitrate=3495.5kbits/s speed=0.0116x elapsed=0:01:43.18    \nframe=   38 fps=0.4 q=30.5 size=     512KiB time=00:00:01.20 bitrate=3495.5kbits/s speed=0.0116x elapsed=0:01:43.75    \nframe=   38 fps=0.4 q=30.5 size=     512KiB time=00:00:01.20 bitrate=3495.5kbits/s speed=0.0115x elapsed=0:01:44.28    \nframe=   38 fps=0.4 q=30.5 size=     512KiB time=00:00:01.20 bitrate=3495.5kbits/s speed=0.0114x elapsed=0:01:44.80    \nframe=   38 fps=0.4 q=30.5 size=     512KiB time=00:00:01.20 bitrate=3495.5kbits/s speed=0.0114x elapsed=0:01:45.32    \nframe=   39 fps=0.4 q=32.4 size=     512KiB time=00:00:01.23 bitrate=3401.1kbits/s speed=0.0117x elapsed=0:01:45.85    \nframe=   39 fps=0.4 q=32.4 size=     512KiB time=00:00:01.23 bitrate=3401.1kbits/s speed=0.0116x elapsed=0:01:46.40    \nframe=   39 fps=0.4 q=32.4 size=     512KiB time=00:00:01.23 bitrate=3401.1kbits/s speed=0.0115x elapsed=0:01:46.92    \nframe=   39 fps=0.4 q=32.4 size=     512KiB time=00:00:01.23 bitrate=3401.1kbits/s speed=0.0115x elapsed=0:01:47.44    \nframe=   40 fps=0.4 q=32.4 size=     512KiB time=00:00:01.26 bitrate=3311.6kbits/s speed=0.0117x elapsed=0:01:47.96    \nframe=   40 fps=0.4 q=32.4 size=     512KiB time=00:00:01.26 bitrate=3311.6kbits/s speed=0.0117x elapsed=0:01:48.48    \nframe=   40 fps=0.4 q=32.4 size=     512KiB time=00:00:01.26 bitrate=3311.6kbits/s speed=0.0116x elapsed=0:01:49.00    \nframe=   40 fps=0.4 q=32.4 size=     512KiB time=00:00:01.26 bitrate=3311.6kbits/s speed=0.0116x elapsed=0:01:49.53    \nframe=   40 fps=0.4 q=32.4 size=     512KiB time=00:00:01.26 bitrate=3311.6kbits/s speed=0.0115x elapsed=0:01:50.06    \nframe=   40 fps=0.4 q=32.4 size=     512KiB time=00:00:01.26 bitrate=3311.6kbits/s speed=0.0115x elapsed=0:01:50.58    \nframe=   41 fps=0.4 q=27.0 size=     512KiB time=00:00:01.30 bitrate=3226.7kbits/s speed=0.0117x elapsed=0:01:51.12    \nframe=   41 fps=0.4 q=27.0 size=     512KiB time=00:00:01.30 bitrate=3226.7kbits/s speed=0.0116x elapsed=0:01:51.64    \nframe=   41 fps=0.4 q=27.0 size=     512KiB time=00:00:01.30 bitrate=3226.7kbits/s speed=0.0116x elapsed=0:01:52.16    \nframe=   42 fps=0.4 q=29.9 size=     512KiB time=00:00:01.33 bitrate=3146.0kbits/s speed=0.0118x elapsed=0:01:52.67    \nframe=   42 fps=0.4 q=29.9 size=     512KiB time=00:00:01.33 bitrate=3146.0kbits/s speed=0.0118x elapsed=0:01:53.21    \nframe=   42 fps=0.4 q=29.9 size=     512KiB time=00:00:01.33 bitrate=3146.0kbits/s speed=0.0117x elapsed=0:01:53.71    \nframe=   43 fps=0.4 q=32.5 size=     512KiB time=00:00:01.36 bitrate=3069.3kbits/s speed=0.012x elapsed=0:01:54.24    \nframe=   43 fps=0.4 q=32.5 size=     512KiB time=00:00:01.36 bitrate=3069.3kbits/s speed=0.0119x elapsed=0:01:54.76    \nframe=   43 fps=0.4 q=32.5 size=     512KiB time=00:00:01.36 bitrate=3069.3kbits/s speed=0.0119x elapsed=0:01:55.26    \nframe=   43 fps=0.4 q=32.5 size=     512KiB time=00:00:01.36 bitrate=3069.3kbits/s speed=0.0118x elapsed=0:01:55.78    \nframe=   43 fps=0.4 q=32.5 size=     512KiB time=00:00:01.36 bitrate=3069.3kbits/s speed=0.0118x elapsed=0:01:56.30    \nframe=   44 fps=0.4 q=32.0 size=     512KiB time=00:00:01.40 bitrate=2996.2kbits/s speed=0.012x elapsed=0:01:56.81    \nframe=   44 fps=0.4 q=32.0 size=     512KiB time=00:00:01.40 bitrate=2996.2kbits/s speed=0.0119x elapsed=0:01:57.33    \nframe=   44 fps=0.4 q=32.0 size=     512KiB time=00:00:01.40 bitrate=2996.2kbits/s speed=0.0119x elapsed=0:01:57.88    \nframe=   44 fps=0.4 q=32.0 size=     512KiB time=00:00:01.40 bitrate=2996.2kbits/s speed=0.0118x elapsed=0:01:58.47    \nframe=   44 fps=0.4 q=32.0 size=     512KiB time=00:00:01.40 bitrate=2996.2kbits/s speed=0.0118x elapsed=0:01:59.03    \nframe=   44 fps=0.4 q=32.0 size=     512KiB time=00:00:01.40 bitrate=2996.2kbits/s speed=0.0117x elapsed=0:01:59.58    \nframe=   44 fps=0.4 q=32.0 size=     512KiB time=00:00:01.40 bitrate=2996.2kbits/s speed=0.0117x elapsed=0:02:00.14    \nframe=   44 fps=0.4 q=32.0 size=     512KiB time=00:00:01.40 bitrate=2996.2kbits/s speed=0.0116x elapsed=0:02:00.67    \nframe=   45 fps=0.4 q=32.2 size=     512KiB time=00:00:01.43 bitrate=2926.5kbits/s speed=0.0118x elapsed=0:02:01.22    \nframe=   45 fps=0.4 q=32.2 size=     512KiB time=00:00:01.43 bitrate=2926.5kbits/s speed=0.0118x elapsed=0:02:01.76    \nframe=   45 fps=0.4 q=32.2 size=     512KiB time=00:00:01.43 bitrate=2926.5kbits/s speed=0.0117x elapsed=0:02:02.31    \nframe=   45 fps=0.4 q=32.2 size=     512KiB time=00:00:01.43 bitrate=2926.5kbits/s speed=0.0117x elapsed=0:02:02.86    \nframe=   45 fps=0.4 q=32.2 size=     512KiB time=00:00:01.43 bitrate=2926.5kbits/s speed=0.0116x elapsed=0:02:03.41    \nframe=   46 fps=0.4 q=27.2 size=     512KiB time=00:00:01.46 bitrate=2860.0kbits/s speed=0.0118x elapsed=0:02:03.94    \nframe=   46 fps=0.4 q=27.2 size=     512KiB time=00:00:01.46 bitrate=2860.0kbits/s speed=0.0118x elapsed=0:02:04.47    \nframe=   46 fps=0.4 q=27.2 size=     512KiB time=00:00:01.46 bitrate=2860.0kbits/s speed=0.0117x elapsed=0:02:05.04    \nframe=   46 fps=0.4 q=27.2 size=     512KiB time=00:00:01.46 bitrate=2860.0kbits/s speed=0.0117x elapsed=0:02:05.62    \nframe=   46 fps=0.4 q=27.2 size=     512KiB time=00:00:01.46 bitrate=2860.0kbits/s speed=0.0116x elapsed=0:02:06.16    \nframe=   46 fps=0.4 q=27.2 size=     512KiB time=00:00:01.46 bitrate=2860.0kbits/s speed=0.0116x elapsed=0:02:06.71    \nframe=   46 fps=0.4 q=27.2 size=     512KiB time=00:00:01.46 bitrate=2860.0kbits/s speed=0.0115x elapsed=0:02:07.24    \nframe=   46 fps=0.4 q=27.2 size=     512KiB time=00:00:01.46 bitrate=2860.0kbits/s speed=0.0115x elapsed=0:02:07.80    \nframe=   46 fps=0.4 q=27.2 size=     512KiB time=00:00:01.46 bitrate=2860.0kbits/s speed=0.0114x elapsed=0:02:08.36    \nframe=   47 fps=0.4 q=29.9 size=     512KiB time=00:00:01.50 bitrate=2796.4kbits/s speed=0.0116x elapsed=0:02:08.89    \nframe=   47 fps=0.4 q=29.9 size=     512KiB time=00:00:01.50 bitrate=2796.4kbits/s speed=0.0116x elapsed=0:02:09.41    \nframe=   47 fps=0.4 q=29.9 size=     512KiB time=00:00:01.50 bitrate=2796.4kbits/s speed=0.0115x elapsed=0:02:09.96    \nframe=   47 fps=0.4 q=29.9 size=     512KiB time=00:00:01.50 bitrate=2796.4kbits/s speed=0.0115x elapsed=0:02:10.54    \nframe=   47 fps=0.4 q=29.9 size=     512KiB time=00:00:01.50 bitrate=2796.4kbits/s speed=0.0114x elapsed=0:02:11.12    \nframe=   47 fps=0.4 q=29.9 size=     512KiB time=00:00:01.50 bitrate=2796.4kbits/s speed=0.0114x elapsed=0:02:11.66    \nframe=   47 fps=0.4 q=29.9 size=     512KiB time=00:00:01.50 bitrate=2796.4kbits/s speed=0.0113x elapsed=0:02:12.22    \nframe=   47 fps=0.4 q=29.9 size=     512KiB time=00:00:01.50 bitrate=2796.4kbits/s speed=0.0113x elapsed=0:02:12.76    \nframe=   47 fps=0.4 q=29.9 size=     512KiB time=00:00:01.50 bitrate=2796.4kbits/s speed=0.0113x elapsed=0:02:13.29    \nframe=   47 fps=0.4 q=29.9 size=     512KiB time=00:00:01.50 bitrate=2796.4kbits/s speed=0.0112x elapsed=0:02:13.81    \nframe=   47 fps=0.3 q=29.9 size=     512KiB time=00:00:01.50 bitrate=2796.4kbits/s speed=0.0112x elapsed=0:02:14.36    \nframe=   47 fps=0.3 q=29.9 size=     512KiB time=00:00:01.50 bitrate=2796.4kbits/s speed=0.0111x elapsed=0:02:14.92    \nframe=   48 fps=0.4 q=32.9 size=     512KiB time=00:00:01.53 bitrate=2735.6kbits/s speed=0.0113x elapsed=0:02:15.45    \nframe=   48 fps=0.4 q=32.9 size=     512KiB time=00:00:01.53 bitrate=2735.6kbits/s speed=0.0113x elapsed=0:02:15.97    \nframe=   48 fps=0.4 q=32.9 size=     512KiB time=00:00:01.53 bitrate=2735.6kbits/s speed=0.0112x elapsed=0:02:16.51    \nframe=   48 fps=0.4 q=32.9 size=     512KiB time=00:00:01.53 bitrate=2735.6kbits/s speed=0.0112x elapsed=0:02:17.08    \nframe=   48 fps=0.3 q=32.9 size=     512KiB time=00:00:01.53 bitrate=2735.6kbits/s speed=0.0111x elapsed=0:02:17.65    \nframe=   48 fps=0.3 q=32.9 size=     512KiB time=00:00:01.53 bitrate=2735.6kbits/s speed=0.0111x elapsed=0:02:18.22    \nframe=   48 fps=0.3 q=32.9 size=     512KiB time=00:00:01.53 bitrate=2735.6kbits/s speed=0.011x elapsed=0:02:18.82    \nframe=   48 fps=0.3 q=32.9 size=     512KiB time=00:00:01.53 bitrate=2735.6kbits/s speed=0.011x elapsed=0:02:19.38    \nframe=   48 fps=0.3 q=32.9 size=     512KiB time=00:00:01.53 bitrate=2735.6kbits/s speed=0.011x elapsed=0:02:19.99    \nframe=   48 fps=0.3 q=32.9 size=     512KiB time=00:00:01.53 bitrate=2735.6kbits/s speed=0.0109x elapsed=0:02:20.56    \nframe=   48 fps=0.3 q=32.9 size=     512KiB time=00:00:01.53 bitrate=2735.6kbits/s speed=0.0109x elapsed=0:02:21.09    \nframe=   48 fps=0.3 q=32.9 size=     512KiB time=00:00:01.53 bitrate=2735.6kbits/s speed=0.0108x elapsed=0:02:21.61    \nframe=   49 fps=0.3 q=32.7 size=     512KiB time=00:00:01.56 bitrate=2677.4kbits/s speed=0.011x elapsed=0:02:22.14    \nframe=   49 fps=0.3 q=32.7 size=     512KiB time=00:00:01.56 bitrate=2677.4kbits/s speed=0.011x elapsed=0:02:22.68    \nframe=   49 fps=0.3 q=32.7 size=     512KiB time=00:00:01.56 bitrate=2677.4kbits/s speed=0.0109x elapsed=0:02:23.22    \nframe=   49 fps=0.3 q=32.7 size=     512KiB time=00:00:01.56 bitrate=2677.4kbits/s speed=0.0109x elapsed=0:02:23.77    \nframe=   50 fps=0.3 q=26.9 size=     768KiB time=00:00:01.60 bitrate=3932.4kbits/s speed=0.0111x elapsed=0:02:24.28    \nframe=   50 fps=0.3 q=26.9 size=     768KiB time=00:00:01.60 bitrate=3932.4kbits/s speed=0.011x elapsed=0:02:24.80    \nframe=   50 fps=0.3 q=26.9 size=     768KiB time=00:00:01.60 bitrate=3932.4kbits/s speed=0.011x elapsed=0:02:25.32    \nframe=   51 fps=0.3 q=30.4 size=     768KiB time=00:00:01.63 bitrate=3852.1kbits/s speed=0.0112x elapsed=0:02:25.84    \nframe=   51 fps=0.3 q=30.4 size=     768KiB time=00:00:01.63 bitrate=3852.1kbits/s speed=0.0112x elapsed=0:02:26.36    \nframe=   51 fps=0.3 q=30.4 size=     768KiB time=00:00:01.63 bitrate=3852.1kbits/s speed=0.0111x elapsed=0:02:26.88    \nframe=   51 fps=0.3 q=30.4 size=     768KiB time=00:00:01.63 bitrate=3852.1kbits/s speed=0.0111x elapsed=0:02:27.39    \nframe=   51 fps=0.3 q=30.4 size=     768KiB time=00:00:01.63 bitrate=3852.1kbits/s speed=0.011x elapsed=0:02:27.91    \nframe=   52 fps=0.4 q=32.6 size=     768KiB time=00:00:01.66 bitrate=3775.1kbits/s speed=0.0112x elapsed=0:02:28.43    \nframe=   52 fps=0.3 q=32.6 size=     768KiB time=00:00:01.66 bitrate=3775.1kbits/s speed=0.0112x elapsed=0:02:28.96    \nframe=   52 fps=0.3 q=32.6 size=     768KiB time=00:00:01.66 bitrate=3775.1kbits/s speed=0.0111x elapsed=0:02:29.50    \nframe=   53 fps=0.4 q=32.3 size=     768KiB time=00:00:01.70 bitrate=3701.1kbits/s speed=0.0113x elapsed=0:02:30.02    \nframe=   53 fps=0.4 q=32.3 size=     768KiB time=00:00:01.70 bitrate=3701.1kbits/s speed=0.0113x elapsed=0:02:30.55    \nframe=   54 fps=0.4 q=26.9 size=     768KiB time=00:00:01.73 bitrate=3629.9kbits/s speed=0.0115x elapsed=0:02:31.08    \nframe=   54 fps=0.4 q=26.9 size=     768KiB time=00:00:01.73 bitrate=3629.9kbits/s speed=0.0114x elapsed=0:02:31.61    \nframe=   54 fps=0.4 q=26.9 size=     768KiB time=00:00:01.73 bitrate=3629.9kbits/s speed=0.0114x elapsed=0:02:32.15    \nframe=   55 fps=0.4 q=29.9 size=     768KiB time=00:00:01.76 bitrate=3561.4kbits/s speed=0.0116x elapsed=0:02:32.65    \nframe=   55 fps=0.4 q=29.9 size=     768KiB time=00:00:01.76 bitrate=3561.4kbits/s speed=0.0115x elapsed=0:02:33.18    \nframe=   56 fps=0.4 q=32.4 size=     768KiB time=00:00:01.80 bitrate=3495.4kbits/s speed=0.0117x elapsed=0:02:33.71    \nframe=   56 fps=0.4 q=32.4 size=     768KiB time=00:00:01.80 bitrate=3495.4kbits/s speed=0.0117x elapsed=0:02:34.22    \nframe=   56 fps=0.4 q=32.4 size=     768KiB time=00:00:01.80 bitrate=3495.4kbits/s speed=0.0116x elapsed=0:02:34.76    \nframe=   56 fps=0.4 q=32.4 size=     768KiB time=00:00:01.80 bitrate=3495.4kbits/s speed=0.0116x elapsed=0:02:35.28    \nframe=   57 fps=0.4 q=32.4 size=     768KiB time=00:00:01.83 bitrate=3431.9kbits/s speed=0.0118x elapsed=0:02:35.80    \nframe=   57 fps=0.4 q=32.4 size=     768KiB time=00:00:01.83 bitrate=3431.9kbits/s speed=0.0117x elapsed=0:02:36.32    \nframe=   57 fps=0.4 q=32.4 size=     768KiB time=00:00:01.83 bitrate=3431.9kbits/s speed=0.0117x elapsed=0:02:36.85    \nframe=   58 fps=0.4 q=26.7 size=     768KiB time=00:00:01.86 bitrate=3370.6kbits/s speed=0.0119x elapsed=0:02:37.37    \nframe=   58 fps=0.4 q=26.7 size=     768KiB time=00:00:01.86 bitrate=3370.6kbits/s speed=0.0118x elapsed=0:02:37.89    \nframe=   59 fps=0.4 q=28.0 size=     768KiB time=00:00:01.90 bitrate=3311.5kbits/s speed=0.012x elapsed=0:02:38.41    \nframe=   59 fps=0.4 q=28.0 size=     768KiB time=00:00:01.90 bitrate=3311.5kbits/s speed=0.012x elapsed=0:02:38.93    \nframe=   59 fps=0.4 q=28.0 size=     768KiB time=00:00:01.90 bitrate=3311.5kbits/s speed=0.0119x elapsed=0:02:39.47    \nframe=   60 fps=0.4 q=32.4 size=     768KiB time=00:00:01.93 bitrate=3254.4kbits/s speed=0.0121x elapsed=0:02:40.00    \nframe=   61 fps=0.4 q=32.1 size=     768KiB time=00:00:01.96 bitrate=3199.2kbits/s speed=0.0123x elapsed=0:02:40.52    \nframe=   61 fps=0.4 q=32.1 size=     768KiB time=00:00:01.96 bitrate=3199.2kbits/s speed=0.0122x elapsed=0:02:41.08    \nframe=   62 fps=0.4 q=32.5 size=     768KiB time=00:00:02.00 bitrate=3145.9kbits/s speed=0.0124x elapsed=0:02:41.61    \nframe=   62 fps=0.4 q=32.5 size=     768KiB time=00:00:02.00 bitrate=3145.9kbits/s speed=0.0123x elapsed=0:02:42.14    \nframe=   62 fps=0.4 q=32.5 size=     768KiB time=00:00:02.00 bitrate=3145.9kbits/s speed=0.0123x elapsed=0:02:42.65    \nframe=   62 fps=0.4 q=32.5 size=     768KiB time=00:00:02.00 bitrate=3145.9kbits/s speed=0.0123x elapsed=0:02:43.17    \nframe=   63 fps=0.4 q=26.9 size=     768KiB time=00:00:02.03 bitrate=3094.3kbits/s speed=0.0124x elapsed=0:02:43.69    \nframe=   63 fps=0.4 q=26.9 size=     768KiB time=00:00:02.03 bitrate=3094.3kbits/s speed=0.0124x elapsed=0:02:44.20    \nframe=   63 fps=0.4 q=26.9 size=     768KiB time=00:00:02.03 bitrate=3094.3kbits/s speed=0.0123x elapsed=0:02:44.72    \nframe=   64 fps=0.4 q=30.2 size=     768KiB time=00:00:02.06 bitrate=3044.4kbits/s speed=0.0125x elapsed=0:02:45.24    \nframe=   64 fps=0.4 q=30.2 size=     768KiB time=00:00:02.06 bitrate=3044.4kbits/s speed=0.0125x elapsed=0:02:45.77    \nframe=   64 fps=0.4 q=30.2 size=     768KiB time=00:00:02.06 bitrate=3044.4kbits/s speed=0.0124x elapsed=0:02:46.29    \nframe=   65 fps=0.4 q=32.0 size=    1024KiB time=00:00:02.10 bitrate=3994.7kbits/s speed=0.0126x elapsed=0:02:46.81    \nframe=   65 fps=0.4 q=32.0 size=    1024KiB time=00:00:02.10 bitrate=3994.7kbits/s speed=0.0125x elapsed=0:02:47.33    \nframe=   65 fps=0.4 q=32.0 size=    1024KiB time=00:00:02.10 bitrate=3994.7kbits/s speed=0.0125x elapsed=0:02:47.85    \nframe=   65 fps=0.4 q=32.0 size=    1024KiB time=00:00:02.10 bitrate=3994.7kbits/s speed=0.0125x elapsed=0:02:48.40    \nframe=   65 fps=0.4 q=32.0 size=    1024KiB time=00:00:02.10 bitrate=3994.7kbits/s speed=0.0124x elapsed=0:02:48.92    \nframe=   66 fps=0.4 q=31.8 size=    1024KiB time=00:00:02.13 bitrate=3932.3kbits/s speed=0.0126x elapsed=0:02:49.44    \nframe=   67 fps=0.4 q=26.4 size=    1024KiB time=00:00:02.16 bitrate=3871.8kbits/s speed=0.0127x elapsed=0:02:49.97    \nframe=   67 fps=0.4 q=26.4 size=    1024KiB time=00:00:02.16 bitrate=3871.8kbits/s speed=0.0127x elapsed=0:02:50.49    \nframe=   67 fps=0.4 q=26.4 size=    1024KiB time=00:00:02.16 bitrate=3871.8kbits/s speed=0.0127x elapsed=0:02:51.01    \nframe=   68 fps=0.4 q=29.7 size=    1024KiB time=00:00:02.20 bitrate=3813.2kbits/s speed=0.0128x elapsed=0:02:51.53    \nframe=   68 fps=0.4 q=29.7 size=    1024KiB time=00:00:02.20 bitrate=3813.2kbits/s speed=0.0128x elapsed=0:02:52.06    \nframe=   69 fps=0.4 q=31.9 size=    1024KiB time=00:00:02.23 bitrate=3756.3kbits/s speed=0.0129x elapsed=0:02:52.58    \nframe=   69 fps=0.4 q=31.9 size=    1024KiB time=00:00:02.23 bitrate=3756.3kbits/s speed=0.0129x elapsed=0:02:53.09    \nframe=   70 fps=0.4 q=31.8 size=    1024KiB time=00:00:02.26 bitrate=3701.0kbits/s speed=0.0131x elapsed=0:02:53.61    \nframe=   70 fps=0.4 q=31.8 size=    1024KiB time=00:00:02.26 bitrate=3701.0kbits/s speed=0.013x elapsed=0:02:54.14    \nframe=   70 fps=0.4 q=31.8 size=    1024KiB time=00:00:02.26 bitrate=3701.0kbits/s speed=0.013x elapsed=0:02:54.69    \nframe=   70 fps=0.4 q=31.8 size=    1024KiB time=00:00:02.26 bitrate=3701.0kbits/s speed=0.0129x elapsed=0:02:55.20    \nframe=   71 fps=0.4 q=26.7 size=    1024KiB time=00:00:02.30 bitrate=3647.4kbits/s speed=0.0131x elapsed=0:02:55.72    \nframe=   72 fps=0.4 q=29.7 size=    1024KiB time=00:00:02.33 bitrate=3595.3kbits/s speed=0.0132x elapsed=0:02:56.25    \nframe=   72 fps=0.4 q=29.7 size=    1024KiB time=00:00:02.33 bitrate=3595.3kbits/s speed=0.0132x elapsed=0:02:56.76    \nframe=   72 fps=0.4 q=29.7 size=    1024KiB time=00:00:02.33 bitrate=3595.3kbits/s speed=0.0132x elapsed=0:02:57.29    \nframe=   73 fps=0.4 q=31.8 size=    1024KiB time=00:00:02.36 bitrate=3544.6kbits/s speed=0.0133x elapsed=0:02:57.79    \nframe=   73 fps=0.4 q=31.8 size=    1024KiB time=00:00:02.36 bitrate=3544.6kbits/s speed=0.0133x elapsed=0:02:58.31    \nframe=   74 fps=0.4 q=31.7 size=    1024KiB time=00:00:02.40 bitrate=3495.4kbits/s speed=0.0134x elapsed=0:02:58.85    \nframe=   74 fps=0.4 q=31.7 size=    1024KiB time=00:00:02.40 bitrate=3495.4kbits/s speed=0.0134x elapsed=0:02:59.38    \nframe=   74 fps=0.4 q=31.7 size=    1024KiB time=00:00:02.40 bitrate=3495.4kbits/s speed=0.0133x elapsed=0:02:59.91    \nframe=   74 fps=0.4 q=31.7 size=    1024KiB time=00:00:02.40 bitrate=3495.4kbits/s speed=0.0133x elapsed=0:03:00.43    \nframe=   74 fps=0.4 q=31.7 size=    1024KiB time=00:00:02.40 bitrate=3495.4kbits/s speed=0.0133x elapsed=0:03:00.95    \nframe=   75 fps=0.4 q=26.8 size=    1024KiB time=00:00:02.43 bitrate=3447.5kbits/s speed=0.0134x elapsed=0:03:01.48    \nframe=   75 fps=0.4 q=26.8 size=    1024KiB time=00:00:02.43 bitrate=3447.5kbits/s speed=0.0134x elapsed=0:03:02.03    \nframe=   75 fps=0.4 q=26.8 size=    1024KiB time=00:00:02.43 bitrate=3447.5kbits/s speed=0.0133x elapsed=0:03:02.55    \nframe=   75 fps=0.4 q=26.8 size=    1024KiB time=00:00:02.43 bitrate=3447.5kbits/s speed=0.0133x elapsed=0:03:03.08    \nframe=   76 fps=0.4 q=29.9 size=    1024KiB time=00:00:02.46 bitrate=3400.9kbits/s speed=0.0134x elapsed=0:03:03.62    \nframe=   77 fps=0.4 q=31.9 size=    1024KiB time=00:00:02.50 bitrate=3355.6kbits/s speed=0.0136x elapsed=0:03:04.14    \nframe=   77 fps=0.4 q=31.9 size=    1024KiB time=00:00:02.50 bitrate=3355.6kbits/s speed=0.0135x elapsed=0:03:04.65    \nframe=   77 fps=0.4 q=31.9 size=    1024KiB time=00:00:02.50 bitrate=3355.6kbits/s speed=0.0135x elapsed=0:03:05.17    \nframe=   77 fps=0.4 q=31.9 size=    1024KiB time=00:00:02.50 bitrate=3355.6kbits/s speed=0.0135x elapsed=0:03:05.69    \nframe=   78 fps=0.4 q=31.8 size=    1024KiB time=00:00:02.53 bitrate=3311.4kbits/s speed=0.0136x elapsed=0:03:06.22    \nframe=   78 fps=0.4 q=31.8 size=    1024KiB time=00:00:02.53 bitrate=3311.4kbits/s speed=0.0136x elapsed=0:03:06.74    \nframe=   78 fps=0.4 q=31.8 size=    1024KiB time=00:00:02.53 bitrate=3311.4kbits/s speed=0.0135x elapsed=0:03:07.28    \nframe=   78 fps=0.4 q=31.8 size=    1024KiB time=00:00:02.53 bitrate=3311.4kbits/s speed=0.0135x elapsed=0:03:07.80    \nframe=   79 fps=0.4 q=26.7 size=    1024KiB time=00:00:02.56 bitrate=3268.4kbits/s speed=0.0136x elapsed=0:03:08.34    \nframe=   80 fps=0.4 q=29.8 size=    1024KiB time=00:00:02.60 bitrate=3226.5kbits/s speed=0.0138x elapsed=0:03:08.88    \nframe=   80 fps=0.4 q=29.8 size=    1024KiB time=00:00:02.60 bitrate=3226.5kbits/s speed=0.0137x elapsed=0:03:09.41    \nframe=   80 fps=0.4 q=29.8 size=    1024KiB time=00:00:02.60 bitrate=3226.5kbits/s speed=0.0137x elapsed=0:03:09.97    \nframe=   80 fps=0.4 q=29.8 size=    1024KiB time=00:00:02.60 bitrate=3226.5kbits/s speed=0.0136x elapsed=0:03:10.51    \nframe=   80 fps=0.4 q=29.8 size=    1024KiB time=00:00:02.60 bitrate=3226.5kbits/s speed=0.0136x elapsed=0:03:11.06    \nframe=   80 fps=0.4 q=29.8 size=    1024KiB time=00:00:02.60 bitrate=3226.5kbits/s speed=0.0136x elapsed=0:03:11.62    \nframe=   81 fps=0.4 q=31.8 size=    1280KiB time=00:00:02.63 bitrate=3982.1kbits/s speed=0.0137x elapsed=0:03:12.26    \nframe=   81 fps=0.4 q=31.8 size=    1280KiB time=00:00:02.63 bitrate=3982.1kbits/s speed=0.0137x elapsed=0:03:12.82    \nframe=   81 fps=0.4 q=31.8 size=    1280KiB time=00:00:02.63 bitrate=3982.1kbits/s speed=0.0136x elapsed=0:03:13.37    \nframe=   81 fps=0.4 q=31.8 size=    1280KiB time=00:00:02.63 bitrate=3982.1kbits/s speed=0.0136x elapsed=0:03:13.95    \nframe=   81 fps=0.4 q=31.8 size=    1280KiB time=00:00:02.63 bitrate=3982.1kbits/s speed=0.0135x elapsed=0:03:14.54    \nframe=   81 fps=0.4 q=31.8 size=    1280KiB time=00:00:02.63 bitrate=3982.1kbits/s speed=0.0135x elapsed=0:03:15.10    \nframe=   82 fps=0.4 q=31.7 size=    1280KiB time=00:00:02.66 bitrate=3932.3kbits/s speed=0.0136x elapsed=0:03:15.64    \nframe=   82 fps=0.4 q=31.7 size=    1280KiB time=00:00:02.66 bitrate=3932.3kbits/s speed=0.0136x elapsed=0:03:16.17    \nframe=   82 fps=0.4 q=31.7 size=    1280KiB time=00:00:02.66 bitrate=3932.3kbits/s speed=0.0136x elapsed=0:03:16.73    \nframe=   82 fps=0.4 q=31.7 size=    1280KiB time=00:00:02.66 bitrate=3932.3kbits/s speed=0.0135x elapsed=0:03:17.32    \nframe=   83 fps=0.4 q=26.6 size=    1280KiB time=00:00:02.70 bitrate=3883.7kbits/s speed=0.0136x elapsed=0:03:17.85    \nframe=   83 fps=0.4 q=26.6 size=    1280KiB time=00:00:02.70 bitrate=3883.7kbits/s speed=0.0136x elapsed=0:03:18.35    \nframe=   83 fps=0.4 q=26.6 size=    1280KiB time=00:00:02.70 bitrate=3883.7kbits/s speed=0.0136x elapsed=0:03:18.88    \nframe=   84 fps=0.4 q=29.6 size=    1280KiB time=00:00:02.73 bitrate=3836.4kbits/s speed=0.0137x elapsed=0:03:19.38    \nframe=   84 fps=0.4 q=29.6 size=    1280KiB time=00:00:02.73 bitrate=3836.4kbits/s speed=0.0137x elapsed=0:03:19.92    \nframe=   84 fps=0.4 q=29.6 size=    1280KiB time=00:00:02.73 bitrate=3836.4kbits/s speed=0.0136x elapsed=0:03:20.46    \nframe=   84 fps=0.4 q=29.6 size=    1280KiB time=00:00:02.73 bitrate=3836.4kbits/s speed=0.0136x elapsed=0:03:20.98    \nframe=   85 fps=0.4 q=32.1 size=    1280KiB time=00:00:02.76 bitrate=3790.2kbits/s speed=0.0137x elapsed=0:03:21.50    \nframe=   86 fps=0.4 q=31.8 size=    1280KiB time=00:00:02.80 bitrate=3745.0kbits/s speed=0.0139x elapsed=0:03:22.01    \nframe=   86 fps=0.4 q=31.8 size=    1280KiB time=00:00:02.80 bitrate=3745.0kbits/s speed=0.0138x elapsed=0:03:22.53    \nframe=   86 fps=0.4 q=31.8 size=    1280KiB time=00:00:02.80 bitrate=3745.0kbits/s speed=0.0138x elapsed=0:03:23.06    \nframe=   86 fps=0.4 q=31.8 size=    1280KiB time=00:00:02.80 bitrate=3745.0kbits/s speed=0.0138x elapsed=0:03:23.58    \nframe=   86 fps=0.4 q=31.8 size=    1280KiB time=00:00:02.80 bitrate=3745.0kbits/s speed=0.0137x elapsed=0:03:24.10    \nframe=   87 fps=0.4 q=26.6 size=    1280KiB time=00:00:02.83 bitrate=3701.0kbits/s speed=0.0138x elapsed=0:03:24.62    \nframe=   88 fps=0.4 q=29.8 size=    1280KiB time=00:00:02.86 bitrate=3657.9kbits/s speed=0.014x elapsed=0:03:25.14    \nframe=   88 fps=0.4 q=29.8 size=    1280KiB time=00:00:02.86 bitrate=3657.9kbits/s speed=0.0139x elapsed=0:03:25.66    \nframe=   88 fps=0.4 q=29.8 size=    1280KiB time=00:00:02.86 bitrate=3657.9kbits/s speed=0.0139x elapsed=0:03:26.17    \nframe=   89 fps=0.4 q=32.2 size=    1280KiB time=00:00:02.90 bitrate=3615.9kbits/s speed=0.014x elapsed=0:03:26.69    \nframe=   89 fps=0.4 q=32.2 size=    1280KiB time=00:00:02.90 bitrate=3615.9kbits/s speed=0.014x elapsed=0:03:27.21    \nframe=   89 fps=0.4 q=32.2 size=    1280KiB time=00:00:02.90 bitrate=3615.9kbits/s speed=0.014x elapsed=0:03:27.74    \nframe=   90 fps=0.4 q=31.9 size=    1280KiB time=00:00:02.93 bitrate=3574.8kbits/s speed=0.0141x elapsed=0:03:28.26    \nframe=   90 fps=0.4 q=31.9 size=    1280KiB time=00:00:02.93 bitrate=3574.8kbits/s speed=0.014x elapsed=0:03:28.78    \nframe=   91 fps=0.4 q=26.5 size=    1280KiB time=00:00:02.96 bitrate=3534.6kbits/s speed=0.0142x elapsed=0:03:29.30    \nframe=   92 fps=0.4 q=29.8 size=    1280KiB time=00:00:03.00 bitrate=3495.4kbits/s speed=0.0143x elapsed=0:03:29.81    \nframe=   92 fps=0.4 q=29.8 size=    1280KiB time=00:00:03.00 bitrate=3495.4kbits/s speed=0.0143x elapsed=0:03:30.33    \nframe=   93 fps=0.4 q=31.9 size=    1280KiB time=00:00:03.03 bitrate=3457.0kbits/s speed=0.0144x elapsed=0:03:30.85    \nframe=   94 fps=0.4 q=31.9 size=    1280KiB time=00:00:03.06 bitrate=3419.4kbits/s speed=0.0145x elapsed=0:03:31.37    \nframe=   94 fps=0.4 q=31.9 size=    1280KiB time=00:00:03.06 bitrate=3419.4kbits/s speed=0.0145x elapsed=0:03:31.88    \nframe=   94 fps=0.4 q=31.9 size=    1280KiB time=00:00:03.06 bitrate=3419.4kbits/s speed=0.0144x elapsed=0:03:32.41    \nframe=   94 fps=0.4 q=31.9 size=    1280KiB time=00:00:03.06 bitrate=3419.4kbits/s speed=0.0144x elapsed=0:03:32.93    \nframe=   94 fps=0.4 q=31.9 size=    1280KiB time=00:00:03.06 bitrate=3419.4kbits/s speed=0.0144x elapsed=0:03:33.46    \nframe=   95 fps=0.4 q=26.5 size=    1280KiB time=00:00:03.10 bitrate=3382.6kbits/s speed=0.0145x elapsed=0:03:33.98    \nframe=   95 fps=0.4 q=26.5 size=    1280KiB time=00:00:03.10 bitrate=3382.6kbits/s speed=0.0145x elapsed=0:03:34.51    \nframe=   95 fps=0.4 q=26.5 size=    1280KiB time=00:00:03.10 bitrate=3382.6kbits/s speed=0.0144x elapsed=0:03:35.04    \nframe=   96 fps=0.4 q=29.6 size=    1280KiB time=00:00:03.13 bitrate=3346.6kbits/s speed=0.0145x elapsed=0:03:35.55    \nframe=   96 fps=0.4 q=29.6 size=    1280KiB time=00:00:03.13 bitrate=3346.6kbits/s speed=0.0145x elapsed=0:03:36.10    \nframe=   97 fps=0.4 q=31.9 size=    1536KiB time=00:00:03.16 bitrate=3973.7kbits/s speed=0.0146x elapsed=0:03:36.62    \nframe=   97 fps=0.4 q=31.9 size=    1536KiB time=00:00:03.16 bitrate=3973.7kbits/s speed=0.0146x elapsed=0:03:37.17    \nframe=   97 fps=0.4 q=31.9 size=    1536KiB time=00:00:03.16 bitrate=3973.7kbits/s speed=0.0145x elapsed=0:03:37.70    \nframe=   97 fps=0.4 q=31.9 size=    1536KiB time=00:00:03.16 bitrate=3973.7kbits/s speed=0.0145x elapsed=0:03:38.23    \nframe=   97 fps=0.4 q=31.9 size=    1536KiB time=00:00:03.16 bitrate=3973.7kbits/s speed=0.0145x elapsed=0:03:38.77    \nframe=   97 fps=0.4 q=31.9 size=    1536KiB time=00:00:03.16 bitrate=3973.7kbits/s speed=0.0144x elapsed=0:03:39.30    \nframe=   97 fps=0.4 q=31.9 size=    1536KiB time=00:00:03.16 bitrate=3973.7kbits/s speed=0.0144x elapsed=0:03:39.82    \nframe=   97 fps=0.4 q=31.9 size=    1536KiB time=00:00:03.16 bitrate=3973.7kbits/s speed=0.0144x elapsed=0:03:40.34    \nframe=   98 fps=0.4 q=31.8 size=    1536KiB time=00:00:03.20 bitrate=3932.3kbits/s speed=0.0145x elapsed=0:03:40.86    \nframe=   98 fps=0.4 q=31.8 size=    1536KiB time=00:00:03.20 bitrate=3932.3kbits/s speed=0.0145x elapsed=0:03:41.40    \nframe=   98 fps=0.4 q=31.8 size=    1536KiB time=00:00:03.20 bitrate=3932.3kbits/s speed=0.0144x elapsed=0:03:41.94    \nframe=   98 fps=0.4 q=31.8 size=    1536KiB time=00:00:03.20 bitrate=3932.3kbits/s speed=0.0144x elapsed=0:03:42.50    \nframe=   99 fps=0.4 q=26.5 size=    1536KiB time=00:00:03.23 bitrate=3891.7kbits/s speed=0.0145x elapsed=0:03:43.03    \nframe=  100 fps=0.4 q=29.5 size=    1536KiB time=00:00:03.26 bitrate=3852.0kbits/s speed=0.0146x elapsed=0:03:43.55    \nframe=  100 fps=0.4 q=29.5 size=    1536KiB time=00:00:03.26 bitrate=3852.0kbits/s speed=0.0146x elapsed=0:03:44.06    \nframe=  101 fps=0.4 q=32.1 size=    1536KiB time=00:00:03.30 bitrate=3813.1kbits/s speed=0.0147x elapsed=0:03:44.58    \nframe=  101 fps=0.4 q=32.1 size=    1536KiB time=00:00:03.30 bitrate=3813.1kbits/s speed=0.0147x elapsed=0:03:45.10    \nframe=  101 fps=0.4 q=32.1 size=    1536KiB time=00:00:03.30 bitrate=3813.1kbits/s speed=0.0146x elapsed=0:03:45.61    \nframe=  101 fps=0.4 q=32.1 size=    1536KiB time=00:00:03.30 bitrate=3813.1kbits/s speed=0.0146x elapsed=0:03:46.13    \nframe=  101 fps=0.4 q=32.1 size=    1536KiB time=00:00:03.30 bitrate=3813.1kbits/s speed=0.0146x elapsed=0:03:46.65    \nframe=  102 fps=0.4 q=32.1 size=    1536KiB time=00:00:03.33 bitrate=3775.0kbits/s speed=0.0147x elapsed=0:03:47.18    \nframe=  102 fps=0.4 q=32.1 size=    1536KiB time=00:00:03.33 bitrate=3775.0kbits/s speed=0.0146x elapsed=0:03:47.71    \nframe=  102 fps=0.4 q=32.1 size=    1536KiB time=00:00:03.33 bitrate=3775.0kbits/s speed=0.0146x elapsed=0:03:48.28    \nframe=  102 fps=0.4 q=32.1 size=    1536KiB time=00:00:03.33 bitrate=3775.0kbits/s speed=0.0146x elapsed=0:03:48.82    \nframe=  103 fps=0.4 q=26.7 size=    1536KiB time=00:00:03.36 bitrate=3737.6kbits/s speed=0.0147x elapsed=0:03:49.36    \nframe=  104 fps=0.5 q=29.7 size=    1536KiB time=00:00:03.40 bitrate=3701.0kbits/s speed=0.0148x elapsed=0:03:49.88    \nframe=  104 fps=0.5 q=29.7 size=    1536KiB time=00:00:03.40 bitrate=3701.0kbits/s speed=0.0148x elapsed=0:03:50.41    \nframe=  105 fps=0.5 q=32.1 size=    1536KiB time=00:00:03.43 bitrate=3665.0kbits/s speed=0.0149x elapsed=0:03:50.92    \nframe=  105 fps=0.5 q=32.1 size=    1536KiB time=00:00:03.43 bitrate=3665.0kbits/s speed=0.0148x elapsed=0:03:51.44    \nframe=  105 fps=0.5 q=32.1 size=    1536KiB time=00:00:03.43 bitrate=3665.0kbits/s speed=0.0148x elapsed=0:03:51.95    \nframe=  105 fps=0.5 q=32.1 size=    1536KiB time=00:00:03.43 bitrate=3665.0kbits/s speed=0.0148x elapsed=0:03:52.47    \nframe=  106 fps=0.5 q=32.7 size=    1536KiB time=00:00:03.46 bitrate=3629.8kbits/s speed=0.0149x elapsed=0:03:52.98    \nframe=  106 fps=0.5 q=32.7 size=    1536KiB time=00:00:03.46 bitrate=3629.8kbits/s speed=0.0148x elapsed=0:03:53.50    \nframe=  106 fps=0.5 q=32.7 size=    1536KiB time=00:00:03.46 bitrate=3629.8kbits/s speed=0.0148x elapsed=0:03:54.02    \nframe=  107 fps=0.5 q=26.9 size=    1536KiB time=00:00:03.50 bitrate=3595.2kbits/s speed=0.0149x elapsed=0:03:54.53    \nframe=  107 fps=0.5 q=26.9 size=    1536KiB time=00:00:03.50 bitrate=3595.2kbits/s speed=0.0149x elapsed=0:03:55.06    \nframe=  107 fps=0.5 q=26.9 size=    1536KiB time=00:00:03.50 bitrate=3595.2kbits/s speed=0.0149x elapsed=0:03:55.59    \nframe=  108 fps=0.5 q=30.1 size=    1536KiB time=00:00:03.53 bitrate=3561.3kbits/s speed=0.015x elapsed=0:03:56.10    \nframe=  108 fps=0.5 q=30.1 size=    1536KiB time=00:00:03.53 bitrate=3561.3kbits/s speed=0.0149x elapsed=0:03:56.63    \nframe=  109 fps=0.5 q=32.9 size=    1536KiB time=00:00:03.56 bitrate=3528.0kbits/s speed=0.015x elapsed=0:03:57.16    \nframe=  109 fps=0.5 q=32.9 size=    1536KiB time=00:00:03.56 bitrate=3528.0kbits/s speed=0.015x elapsed=0:03:57.67    \nframe=  109 fps=0.5 q=32.9 size=    1536KiB time=00:00:03.56 bitrate=3528.0kbits/s speed=0.015x elapsed=0:03:58.20    \nframe=  109 fps=0.5 q=32.9 size=    1536KiB time=00:00:03.56 bitrate=3528.0kbits/s speed=0.0149x elapsed=0:03:58.73    \nframe=  109 fps=0.5 q=32.9 size=    1536KiB time=00:00:03.56 bitrate=3528.0kbits/s speed=0.0149x elapsed=0:03:59.25    \nframe=  110 fps=0.5 q=32.9 size=    1536KiB time=00:00:03.60 bitrate=3495.4kbits/s speed=0.015x elapsed=0:03:59.77    \nframe=  110 fps=0.5 q=32.9 size=    1536KiB time=00:00:03.60 bitrate=3495.4kbits/s speed=0.015x elapsed=0:04:00.30    \nframe=  110 fps=0.5 q=32.9 size=    1536KiB time=00:00:03.60 bitrate=3495.4kbits/s speed=0.0149x elapsed=0:04:00.82    \nframe=  110 fps=0.5 q=32.9 size=    1536KiB time=00:00:03.60 bitrate=3495.4kbits/s speed=0.0149x elapsed=0:04:01.34    \nframe=  111 fps=0.5 q=27.1 size=    1536KiB time=00:00:03.63 bitrate=3463.3kbits/s speed=0.015x elapsed=0:04:01.87    \nframe=  111 fps=0.5 q=27.1 size=    1536KiB time=00:00:03.63 bitrate=3463.3kbits/s speed=0.015x elapsed=0:04:02.40    \nframe=  112 fps=0.5 q=30.6 size=    1792KiB time=00:00:03.66 bitrate=4003.7kbits/s speed=0.0151x elapsed=0:04:02.90    \nframe=  112 fps=0.5 q=30.6 size=    1792KiB time=00:00:03.66 bitrate=4003.7kbits/s speed=0.0151x elapsed=0:04:03.42    \nframe=  112 fps=0.5 q=30.6 size=    1792KiB time=00:00:03.66 bitrate=4003.7kbits/s speed=0.015x elapsed=0:04:03.97    \nframe=  112 fps=0.5 q=30.6 size=    1792KiB time=00:00:03.66 bitrate=4003.7kbits/s speed=0.015x elapsed=0:04:04.50    \nframe=  113 fps=0.5 q=32.7 size=    1792KiB time=00:00:03.70 bitrate=3967.7kbits/s speed=0.0151x elapsed=0:04:05.01    \nframe=  113 fps=0.5 q=32.7 size=    1792KiB time=00:00:03.70 bitrate=3967.7kbits/s speed=0.0151x elapsed=0:04:05.53    \nframe=  113 fps=0.5 q=32.7 size=    1792KiB time=00:00:03.70 bitrate=3967.7kbits/s speed=0.015x elapsed=0:04:06.04    \nframe=  113 fps=0.5 q=32.7 size=    1792KiB time=00:00:03.70 bitrate=3967.7kbits/s speed=0.015x elapsed=0:04:06.59    \nframe=  114 fps=0.5 q=32.8 size=    1792KiB time=00:00:03.73 bitrate=3932.3kbits/s speed=0.0151x elapsed=0:04:07.11    \nframe=  114 fps=0.5 q=32.8 size=    1792KiB time=00:00:03.73 bitrate=3932.3kbits/s speed=0.0151x elapsed=0:04:07.62    \nframe=  115 fps=0.5 q=27.0 size=    1792KiB time=00:00:03.76 bitrate=3897.5kbits/s speed=0.0152x elapsed=0:04:08.16    \nframe=  115 fps=0.5 q=27.0 size=    1792KiB time=00:00:03.76 bitrate=3897.5kbits/s speed=0.0151x elapsed=0:04:08.73    \nframe=  115 fps=0.5 q=27.0 size=    1792KiB time=00:00:03.76 bitrate=3897.5kbits/s speed=0.0151x elapsed=0:04:09.33    \nframe=  115 fps=0.5 q=27.0 size=    1792KiB time=00:00:03.76 bitrate=3897.5kbits/s speed=0.0151x elapsed=0:04:09.95    \nframe=  115 fps=0.5 q=27.0 size=    1792KiB time=00:00:03.76 bitrate=3897.5kbits/s speed=0.015x elapsed=0:04:10.56    \nframe=  115 fps=0.5 q=27.0 size=    1792KiB time=00:00:03.76 bitrate=3897.5kbits/s speed=0.015x elapsed=0:04:11.13    \nframe=  116 fps=0.5 q=30.4 size=    1792KiB time=00:00:03.80 bitrate=3863.3kbits/s speed=0.0151x elapsed=0:04:11.70    \nframe=  116 fps=0.5 q=30.4 size=    1792KiB time=00:00:03.80 bitrate=3863.3kbits/s speed=0.0151x elapsed=0:04:12.25    \nframe=  116 fps=0.5 q=30.4 size=    1792KiB time=00:00:03.80 bitrate=3863.3kbits/s speed=0.015x elapsed=0:04:12.76    \nframe=  116 fps=0.5 q=30.4 size=    1792KiB time=00:00:03.80 bitrate=3863.3kbits/s speed=0.015x elapsed=0:04:13.29    \nframe=  116 fps=0.5 q=30.4 size=    1792KiB time=00:00:03.80 bitrate=3863.3kbits/s speed=0.015x elapsed=0:04:13.81    \nframe=  116 fps=0.5 q=30.4 size=    1792KiB time=00:00:03.80 bitrate=3863.3kbits/s speed=0.0149x elapsed=0:04:14.37    \nframe=  116 fps=0.5 q=30.4 size=    1792KiB time=00:00:03.80 bitrate=3863.3kbits/s speed=0.0149x elapsed=0:04:14.87    \nframe=  116 fps=0.5 q=30.4 size=    1792KiB time=00:00:03.80 bitrate=3863.3kbits/s speed=0.0149x elapsed=0:04:15.41    \nframe=  117 fps=0.5 q=32.8 size=    1792KiB time=00:00:03.83 bitrate=3829.7kbits/s speed=0.015x elapsed=0:04:15.93    \nframe=  117 fps=0.5 q=32.8 size=    1792KiB time=00:00:03.83 bitrate=3829.7kbits/s speed=0.0149x elapsed=0:04:16.44    \nframe=  118 fps=0.5 q=33.0 size=    1792KiB time=00:00:03.86 bitrate=3796.7kbits/s speed=0.015x elapsed=0:04:16.96    \nframe=  118 fps=0.5 q=33.0 size=    1792KiB time=00:00:03.86 bitrate=3796.7kbits/s speed=0.015x elapsed=0:04:17.48    \nframe=  119 fps=0.5 q=27.0 size=    1792KiB time=00:00:03.90 bitrate=3764.2kbits/s speed=0.0151x elapsed=0:04:17.98    \nframe=  119 fps=0.5 q=27.0 size=    1792KiB time=00:00:03.90 bitrate=3764.2kbits/s speed=0.0151x elapsed=0:04:18.50    \nframe=  120 fps=0.5 q=30.4 size=    1792KiB time=00:00:03.93 bitrate=3732.3kbits/s speed=0.0152x elapsed=0:04:19.04    \nframe=  120 fps=0.5 q=30.4 size=    1792KiB time=00:00:03.93 bitrate=3732.3kbits/s speed=0.0152x elapsed=0:04:19.57    \nframe=  120 fps=0.5 q=30.4 size=    1792KiB time=00:00:03.93 bitrate=3732.3kbits/s speed=0.0151x elapsed=0:04:20.10    \nframe=  120 fps=0.5 q=30.4 size=    1792KiB time=00:00:03.93 bitrate=3732.3kbits/s speed=0.0151x elapsed=0:04:20.64    \nframe=  120 fps=0.5 q=30.4 size=    1792KiB time=00:00:03.93 bitrate=3732.3kbits/s speed=0.0151x elapsed=0:04:21.17    \nframe=  120 fps=0.5 q=30.4 size=    1792KiB time=00:00:03.93 bitrate=3732.3kbits/s speed=0.015x elapsed=0:04:21.68    \nframe=  120 fps=0.5 q=30.4 size=    1792KiB time=00:00:03.93 bitrate=3732.3kbits/s speed=0.015x elapsed=0:04:22.20    \nframe=  120 fps=0.5 q=30.4 size=    1792KiB time=00:00:03.93 bitrate=3732.3kbits/s speed=0.015x elapsed=0:04:22.72    \nframe=  120 fps=0.5 q=30.4 size=    1792KiB time=00:00:03.93 bitrate=3732.3kbits/s speed=0.0149x elapsed=0:04:23.27    \nframe=  121 fps=0.5 q=32.7 size=    1792KiB time=00:00:03.96 bitrate=3700.9kbits/s speed=0.015x elapsed=0:04:23.80    \nframe=  121 fps=0.5 q=32.7 size=    1792KiB time=00:00:03.96 bitrate=3700.9kbits/s speed=0.015x elapsed=0:04:24.33    \nframe=  121 fps=0.5 q=32.7 size=    1792KiB time=00:00:03.96 bitrate=3700.9kbits/s speed=0.015x elapsed=0:04:24.86    \nframe=  121 fps=0.5 q=32.7 size=    1792KiB time=00:00:03.96 bitrate=3700.9kbits/s speed=0.0149x elapsed=0:04:25.40    \nframe=  121 fps=0.5 q=32.7 size=    1792KiB time=00:00:03.96 bitrate=3700.9kbits/s speed=0.0149x elapsed=0:04:25.93    \nframe=  121 fps=0.5 q=32.7 size=    1792KiB time=00:00:03.96 bitrate=3700.9kbits/s speed=0.0149x elapsed=0:04:26.45    \nframe=  122 fps=0.5 q=32.8 size=    1792KiB time=00:00:04.00 bitrate=3670.1kbits/s speed=0.015x elapsed=0:04:26.99    \nframe=  122 fps=0.5 q=32.8 size=    1792KiB time=00:00:04.00 bitrate=3670.1kbits/s speed=0.015x elapsed=0:04:27.51    \nframe=  122 fps=0.5 q=32.8 size=    1792KiB time=00:00:04.00 bitrate=3670.1kbits/s speed=0.0149x elapsed=0:04:28.04    \nframe=  122 fps=0.5 q=32.8 size=    1792KiB time=00:00:04.00 bitrate=3670.1kbits/s speed=0.0149x elapsed=0:04:28.57    \nframe=  123 fps=0.5 q=27.1 size=    1792KiB time=00:00:04.03 bitrate=3639.8kbits/s speed=0.015x elapsed=0:04:29.10    \nframe=  123 fps=0.5 q=27.1 size=    1792KiB time=00:00:04.03 bitrate=3639.8kbits/s speed=0.015x elapsed=0:04:29.63    \nframe=  123 fps=0.5 q=27.1 size=    1792KiB time=00:00:04.03 bitrate=3639.8kbits/s speed=0.0149x elapsed=0:04:30.15    \nframe=  123 fps=0.5 q=27.1 size=    1792KiB time=00:00:04.03 bitrate=3639.8kbits/s speed=0.0149x elapsed=0:04:30.67    \nframe=  124 fps=0.5 q=30.3 size=    1792KiB time=00:00:04.06 bitrate=3609.9kbits/s speed=0.015x elapsed=0:04:31.20    \nframe=  124 fps=0.5 q=30.3 size=    1792KiB time=00:00:04.06 bitrate=3609.9kbits/s speed=0.015x elapsed=0:04:31.71    \nframe=  124 fps=0.5 q=30.3 size=    1792KiB time=00:00:04.06 bitrate=3609.9kbits/s speed=0.0149x elapsed=0:04:32.23    \nframe=  124 fps=0.5 q=30.3 size=    1792KiB time=00:00:04.06 bitrate=3609.9kbits/s speed=0.0149x elapsed=0:04:32.75    \nframe=  124 fps=0.5 q=30.3 size=    1792KiB time=00:00:04.06 bitrate=3609.9kbits/s speed=0.0149x elapsed=0:04:33.27    \nframe=  125 fps=0.5 q=32.6 size=    1792KiB time=00:00:04.10 bitrate=3580.6kbits/s speed=0.015x elapsed=0:04:33.80    \nframe=  125 fps=0.5 q=32.6 size=    1792KiB time=00:00:04.10 bitrate=3580.6kbits/s speed=0.0149x elapsed=0:04:34.32    \nframe=  126 fps=0.5 q=32.4 size=    1792KiB time=00:00:04.13 bitrate=3551.7kbits/s speed=0.015x elapsed=0:04:34.82    \nframe=  126 fps=0.5 q=32.4 size=    1792KiB time=00:00:04.13 bitrate=3551.7kbits/s speed=0.015x elapsed=0:04:35.39    \nframe=  126 fps=0.5 q=32.4 size=    1792KiB time=00:00:04.13 bitrate=3551.7kbits/s speed=0.015x elapsed=0:04:35.91    \nframe=  127 fps=0.5 q=26.8 size=    1792KiB time=00:00:04.16 bitrate=3523.3kbits/s speed=0.0151x elapsed=0:04:36.42    \nframe=  127 fps=0.5 q=26.8 size=    1792KiB time=00:00:04.16 bitrate=3523.3kbits/s speed=0.015x elapsed=0:04:36.94    \nframe=  128 fps=0.5 q=30.1 size=    2048KiB time=00:00:04.20 bitrate=3994.7kbits/s speed=0.0151x elapsed=0:04:37.46    \nframe=  128 fps=0.5 q=30.1 size=    2048KiB time=00:00:04.20 bitrate=3994.7kbits/s speed=0.0151x elapsed=0:04:37.97    \nframe=  128 fps=0.5 q=30.1 size=    2048KiB time=00:00:04.20 bitrate=3994.7kbits/s speed=0.0151x elapsed=0:04:38.49    \nframe=  129 fps=0.5 q=32.5 size=    2048KiB time=00:00:04.23 bitrate=3963.2kbits/s speed=0.0152x elapsed=0:04:39.01    \nframe=  129 fps=0.5 q=32.5 size=    2048KiB time=00:00:04.23 bitrate=3963.2kbits/s speed=0.0151x elapsed=0:04:39.53    \nframe=  129 fps=0.5 q=32.5 size=    2048KiB time=00:00:04.23 bitrate=3963.2kbits/s speed=0.0151x elapsed=0:04:40.06    \nframe=  129 fps=0.5 q=32.5 size=    2048KiB time=00:00:04.23 bitrate=3963.2kbits/s speed=0.0151x elapsed=0:04:40.62    \nframe=  130 fps=0.5 q=32.1 size=    2048KiB time=00:00:04.26 bitrate=3932.2kbits/s speed=0.0152x elapsed=0:04:41.18    \nframe=  130 fps=0.5 q=32.1 size=    2048KiB time=00:00:04.26 bitrate=3932.2kbits/s speed=0.0151x elapsed=0:04:41.70    \nframe=  130 fps=0.5 q=32.1 size=    2048KiB time=00:00:04.26 bitrate=3932.2kbits/s speed=0.0151x elapsed=0:04:42.28    \nframe=  130 fps=0.5 q=32.1 size=    2048KiB time=00:00:04.26 bitrate=3932.2kbits/s speed=0.0151x elapsed=0:04:42.85    \nframe=  130 fps=0.5 q=32.1 size=    2048KiB time=00:00:04.26 bitrate=3932.2kbits/s speed=0.0151x elapsed=0:04:43.49    \nframe=  130 fps=0.5 q=32.1 size=    2048KiB time=00:00:04.26 bitrate=3932.2kbits/s speed=0.015x elapsed=0:04:44.11    \nframe=  130 fps=0.5 q=32.1 size=    2048KiB time=00:00:04.26 bitrate=3932.2kbits/s speed=0.015x elapsed=0:04:44.71    \nframe=  130 fps=0.5 q=32.1 size=    2048KiB time=00:00:04.26 bitrate=3932.2kbits/s speed=0.015x elapsed=0:04:45.31    \nframe=  130 fps=0.5 q=32.1 size=    2048KiB time=00:00:04.26 bitrate=3932.2kbits/s speed=0.0149x elapsed=0:04:45.87    \nframe=  130 fps=0.5 q=32.1 size=    2048KiB time=00:00:04.26 bitrate=3932.2kbits/s speed=0.0149x elapsed=0:04:46.40    \nframe=  130 fps=0.5 q=32.1 size=    2048KiB time=00:00:04.26 bitrate=3932.2kbits/s speed=0.0149x elapsed=0:04:46.93    \nframe=  131 fps=0.5 q=26.8 size=    2048KiB time=00:00:04.30 bitrate=3901.8kbits/s speed=0.015x elapsed=0:04:47.46    \nframe=  131 fps=0.5 q=26.8 size=    2048KiB time=00:00:04.30 bitrate=3901.8kbits/s speed=0.0149x elapsed=0:04:47.99    \nframe=  131 fps=0.5 q=26.8 size=    2048KiB time=00:00:04.30 bitrate=3901.8kbits/s speed=0.0149x elapsed=0:04:48.51    \nframe=  131 fps=0.5 q=26.8 size=    2048KiB time=00:00:04.30 bitrate=3901.8kbits/s speed=0.0149x elapsed=0:04:49.05    \nframe=  131 fps=0.5 q=26.8 size=    2048KiB time=00:00:04.30 bitrate=3901.8kbits/s speed=0.0149x elapsed=0:04:49.56    \nframe=  131 fps=0.5 q=26.8 size=    2048KiB time=00:00:04.30 bitrate=3901.8kbits/s speed=0.0148x elapsed=0:04:50.08    \nframe=  132 fps=0.5 q=29.7 size=    2048KiB time=00:00:04.33 bitrate=3871.7kbits/s speed=0.0149x elapsed=0:04:50.59    \nframe=  132 fps=0.5 q=29.7 size=    2048KiB time=00:00:04.33 bitrate=3871.7kbits/s speed=0.0149x elapsed=0:04:51.11    \nframe=  132 fps=0.5 q=29.7 size=    2048KiB time=00:00:04.33 bitrate=3871.7kbits/s speed=0.0149x elapsed=0:04:51.64    \nframe=  132 fps=0.5 q=29.7 size=    2048KiB time=00:00:04.33 bitrate=3871.7kbits/s speed=0.0148x elapsed=0:04:52.17    \nframe=  132 fps=0.5 q=29.7 size=    2048KiB time=00:00:04.33 bitrate=3871.7kbits/s speed=0.0148x elapsed=0:04:52.69    \nframe=  133 fps=0.5 q=32.2 size=    2048KiB time=00:00:04.36 bitrate=3842.2kbits/s speed=0.0149x elapsed=0:04:53.21    \nframe=  133 fps=0.5 q=32.2 size=    2048KiB time=00:00:04.36 bitrate=3842.2kbits/s speed=0.0149x elapsed=0:04:53.71    \nframe=  133 fps=0.5 q=32.2 size=    2048KiB time=00:00:04.36 bitrate=3842.2kbits/s speed=0.0148x elapsed=0:04:54.25    \nframe=  134 fps=0.5 q=32.0 size=    2048KiB time=00:00:04.40 bitrate=3813.1kbits/s speed=0.0149x elapsed=0:04:54.78    \nframe=  134 fps=0.5 q=32.0 size=    2048KiB time=00:00:04.40 bitrate=3813.1kbits/s speed=0.0149x elapsed=0:04:55.30    \nframe=  135 fps=0.5 q=26.6 size=    2048KiB time=00:00:04.43 bitrate=3784.4kbits/s speed=0.015x elapsed=0:04:55.82    \nframe=  135 fps=0.5 q=26.6 size=    2048KiB time=00:00:04.43 bitrate=3784.4kbits/s speed=0.015x elapsed=0:04:56.33    \nframe=  136 fps=0.5 q=29.8 size=    2048KiB time=00:00:04.46 bitrate=3756.2kbits/s speed=0.015x elapsed=0:04:56.85    \nframe=  136 fps=0.5 q=29.8 size=    2048KiB time=00:00:04.46 bitrate=3756.2kbits/s speed=0.015x elapsed=0:04:57.37    \nframe=  136 fps=0.5 q=29.8 size=    2048KiB time=00:00:04.46 bitrate=3756.2kbits/s speed=0.015x elapsed=0:04:57.90    \nframe=  137 fps=0.5 q=31.8 size=    2048KiB time=00:00:04.50 bitrate=3728.3kbits/s speed=0.0151x elapsed=0:04:58.43    \nframe=  137 fps=0.5 q=31.8 size=    2048KiB time=00:00:04.50 bitrate=3728.3kbits/s speed=0.0151x elapsed=0:04:58.95    \nframe=  137 fps=0.5 q=31.8 size=    2048KiB time=00:00:04.50 bitrate=3728.3kbits/s speed=0.015x elapsed=0:04:59.48    \nframe=  137 fps=0.5 q=31.8 size=    2048KiB time=00:00:04.50 bitrate=3728.3kbits/s speed=0.015x elapsed=0:04:59.99    \nframe=  138 fps=0.5 q=31.7 size=    2048KiB time=00:00:04.53 bitrate=3700.9kbits/s speed=0.0151x elapsed=0:05:00.51    \nframe=  138 fps=0.5 q=31.7 size=    2048KiB time=00:00:04.53 bitrate=3700.9kbits/s speed=0.0151x elapsed=0:05:01.04    \nframe=  139 fps=0.5 q=26.7 size=    2048KiB time=00:00:04.56 bitrate=3673.9kbits/s speed=0.0151x elapsed=0:05:01.54    \nframe=  139 fps=0.5 q=26.7 size=    2048KiB time=00:00:04.56 bitrate=3673.9kbits/s speed=0.0151x elapsed=0:05:02.06    \nframe=  140 fps=0.5 q=29.4 size=    2048KiB time=00:00:04.60 bitrate=3647.3kbits/s speed=0.0152x elapsed=0:05:02.58    \nframe=  140 fps=0.5 q=29.4 size=    2048KiB time=00:00:04.60 bitrate=3647.3kbits/s speed=0.0152x elapsed=0:05:03.11    \nframe=  140 fps=0.5 q=29.4 size=    2048KiB time=00:00:04.60 bitrate=3647.3kbits/s speed=0.0151x elapsed=0:05:03.65    \nframe=  141 fps=0.5 q=31.5 size=    2048KiB time=00:00:04.63 bitrate=3621.1kbits/s speed=0.0152x elapsed=0:05:04.17    \nframe=  141 fps=0.5 q=31.5 size=    2048KiB time=00:00:04.63 bitrate=3621.1kbits/s speed=0.0152x elapsed=0:05:04.70    \nframe=  142 fps=0.5 q=31.1 size=    2048KiB time=00:00:04.66 bitrate=3595.2kbits/s speed=0.0153x elapsed=0:05:05.21    \nframe=  142 fps=0.5 q=31.1 size=    2048KiB time=00:00:04.66 bitrate=3595.2kbits/s speed=0.0153x elapsed=0:05:05.74    \nframe=  142 fps=0.5 q=31.1 size=    2048KiB time=00:00:04.66 bitrate=3595.2kbits/s speed=0.0152x elapsed=0:05:06.26    \nframe=  143 fps=0.5 q=26.9 size=    2048KiB time=00:00:04.70 bitrate=3569.7kbits/s speed=0.0153x elapsed=0:05:06.81    \nframe=  143 fps=0.5 q=26.9 size=    2048KiB time=00:00:04.70 bitrate=3569.7kbits/s speed=0.0153x elapsed=0:05:07.33    \nframe=  143 fps=0.5 q=26.9 size=    2048KiB time=00:00:04.70 bitrate=3569.7kbits/s speed=0.0153x elapsed=0:05:07.86    \nframe=  143 fps=0.5 q=26.9 size=    2048KiB time=00:00:04.70 bitrate=3569.7kbits/s speed=0.0152x elapsed=0:05:08.40    \nframe=  143 fps=0.5 q=26.9 size=    2048KiB time=00:00:04.70 bitrate=3569.7kbits/s speed=0.0152x elapsed=0:05:08.93    \nframe=  143 fps=0.5 q=26.9 size=    2048KiB time=00:00:04.70 bitrate=3569.7kbits/s speed=0.0152x elapsed=0:05:09.43    \nframe=  144 fps=0.5 q=29.0 size=    2304KiB time=00:00:04.73 bitrate=3987.6kbits/s speed=0.0153x elapsed=0:05:09.96    \nframe=  144 fps=0.5 q=29.0 size=    2304KiB time=00:00:04.73 bitrate=3987.6kbits/s speed=0.0152x elapsed=0:05:10.48    \nframe=  145 fps=0.5 q=30.8 size=    2304KiB time=00:00:04.76 bitrate=3959.7kbits/s speed=0.0153x elapsed=0:05:11.00    \nframe=  145 fps=0.5 q=30.8 size=    2304KiB time=00:00:04.76 bitrate=3959.7kbits/s speed=0.0153x elapsed=0:05:11.53    \nframe=  145 fps=0.5 q=30.8 size=    2304KiB time=00:00:04.76 bitrate=3959.7kbits/s speed=0.0153x elapsed=0:05:12.04    \nframe=  145 fps=0.5 q=30.8 size=    2304KiB time=00:00:04.76 bitrate=3959.7kbits/s speed=0.0152x elapsed=0:05:12.57    \nframe=  145 fps=0.5 q=30.8 size=    2304KiB time=00:00:04.76 bitrate=3959.7kbits/s speed=0.0152x elapsed=0:05:13.10    \nframe=  146 fps=0.5 q=29.8 size=    2304KiB time=00:00:04.80 bitrate=3932.2kbits/s speed=0.0153x elapsed=0:05:13.62    \nframe=  146 fps=0.5 q=29.8 size=    2304KiB time=00:00:04.80 bitrate=3932.2kbits/s speed=0.0153x elapsed=0:05:14.17    \nframe=  147 fps=0.5 q=27.7 size=    2304KiB time=00:00:04.83 bitrate=3905.1kbits/s speed=0.0154x elapsed=0:05:14.72    \nframe=  147 fps=0.5 q=27.7 size=    2304KiB time=00:00:04.83 bitrate=3905.1kbits/s speed=0.0153x elapsed=0:05:15.24    \nframe=  147 fps=0.5 q=27.7 size=    2304KiB time=00:00:04.83 bitrate=3905.1kbits/s speed=0.0153x elapsed=0:05:15.77    \nframe=  148 fps=0.5 q=27.6 size=    2304KiB time=00:00:04.86 bitrate=3878.4kbits/s speed=0.0154x elapsed=0:05:16.32    \nframe=  148 fps=0.5 q=27.6 size=    2304KiB time=00:00:04.86 bitrate=3878.4kbits/s speed=0.0154x elapsed=0:05:16.86    \nframe=  148 fps=0.5 q=27.6 size=    2304KiB time=00:00:04.86 bitrate=3878.4kbits/s speed=0.0153x elapsed=0:05:17.38    \nframe=  149 fps=0.5 q=30.1 size=    2304KiB time=00:00:04.90 bitrate=3852.0kbits/s speed=0.0154x elapsed=0:05:17.90    \n[mp4 @ 0000027b2f21aa80] Starting second pass: moving the moov atom to the beginning of the file\n[out#0/mp4 @ 0000027b2f21a980] video:2395KiB audio:0KiB subtitle:0KiB other streams:0KiB global headers:2KiB muxing overhead: 0.216560%\nframe=  150 fps=0.5 q=29.5 Lsize=    2401KiB time=00:00:04.93 bitrate=3986.3kbits/s speed=0.0155x elapsed=0:05:18.31    \nx265 [info]: frame I:      1, Avg QP:29.18  kb/s: 11052.00\nx265 [info]: frame P:     36, Avg QP:27.19  kb/s: 8795.02 \nx265 [info]: frame B:    113, Avg QP:31.66  kb/s: 2308.66 \nx265 [info]: Weighted P-Frames: Y:2.8% UV:2.8%\n\nencoded 150 frames in 317.98s (0.47 fps), 3923.68 kb/s, Avg QP:30.57\n",
  "seconds": 318.66653776168823,
  "probe_out": {}
}